<svg id="Layer_1" data-name="Layer 1" xmlns="http://www.w3.org/2000/svg" viewBox="0 0 130.78 130.78">
  <defs>
    <style>
      .cls-2 {
        fill: #39c0c4;
      }

      .cls-1, .cls-3 {
        fill: #ffffff;
        opacity: .8;
      }

      .cls-3 {
        fill: #000000;
        opacity: .2;
      }

      g.icon-drag {
        opacity: .5;
        -webkit-animation: chango .7s ease infinite;
        -moz-animation: chango .7s ease infinite;
        -o-animation: chango .7s ease infinite;
        animation: chango .7s ease infinite;
      }

      @-webkit-keyframes chango {
        0%{
            opacity:1;
        }
        50%{
            opacity:.5;
        }
        100%{
            opacity:1;
        }
      }

      g.text-around {
        text-shadow: rgba(0, 0, 0, .9);
        transform-origin: center;
        animation: rotate 20s linear infinite; 
      }

      @-webkit-keyframes rotate {
        0% {transform: rotate(0deg);} 
        100% {transform: rotate(360deg);}
      }
    </style>
  </defs>
  <title>drag360</title>
  <g class="text-around">
    <path class="cls-1" d="M246.12,438.36l-2.79.62a10.84,10.84,0,0,1-2.38-4.75,7.81,7.81,0,0,1,.68-5.84,6.43,6.43,0,0,1,9.34-1.95,8.23,8.23,0,0,1,3.15,5.14,9.18,9.18,0,0,1-.1,4.88l-2.85.63a9.3,9.3,0,0,0,.34-4.69,5.13,5.13,0,0,0-1.84-3.1,3.57,3.57,0,0,0-3.07-.68,3.67,3.67,0,0,0-2.53,1.9,4.91,4.91,0,0,0-.38,3.52,6.76,6.76,0,0,0,.68,1.84A18.48,18.48,0,0,0,246.12,438.36Z" transform="translate(-232.2 -355.13)"/>
    <path class="cls-1" d="M257.29,440.59l-11.9,5.49-1.16-2.53,11.89-5.48Z" transform="translate(-232.2 -355.13)"/>
    <path class="cls-1" d="M255.67,446.39,248,450.83l-1.4-2.4,7.66-4.44Zm1-4a1.5,1.5,0,0,1,1.17-.15,1.47,1.47,0,0,1,.93.7,1.5,1.5,0,0,1,.16,1.17,1.55,1.55,0,0,1-1.88,1.09,1.52,1.52,0,0,1-1.09-1.88A1.49,1.49,0,0,1,256.68,442.41Z" transform="translate(-232.2 -355.13)"/>
    <path class="cls-1" d="M256.61,458.42l-1.56,1.24a8.62,8.62,0,0,1-2.33-2,5.39,5.39,0,0,1-1.35-3.7,4.27,4.27,0,0,1,1.72-3.16,4.33,4.33,0,0,1,3.48-1,5.11,5.11,0,0,1,3.27,2,8.71,8.71,0,0,1,1.4,2.7l-1.62,1.29a4.94,4.94,0,0,0-.95-2.14,2.81,2.81,0,0,0-1.79-1.13,2.44,2.44,0,0,0-1.92.57,2.55,2.55,0,0,0-1,1.76,2.64,2.64,0,0,0,.63,2A7.86,7.86,0,0,0,256.61,458.42Z" transform="translate(-232.2 -355.13)"/>
    <path class="cls-1" d="M268.17,454.59l-5.45,6.68,0,0,5.43-1.22,2.53,2.07-5.45,1.2,0,5.75-2.64-2.15.08-5.56,0,0-2.75,3.38L257.74,463,266,452.83Z" transform="translate(-232.2 -355.13)"/>
    <path class="cls-1" d="M274.29,467.5l-1.24,2.23-4.37-2.44,1.24-2.23Z" transform="translate(-232.2 -355.13)"/>
    <path class="cls-1" d="M287.42,464.59,283.23,477l-2.64-.9.23-.67a3.78,3.78,0,0,1-2.61.05,3.83,3.83,0,0,1-2.38-2.19,4.74,4.74,0,0,1-.07-3.5A4.65,4.65,0,0,1,278,467a4.08,4.08,0,0,1,3.34-.23,5.16,5.16,0,0,1,2,1.27l1.48-4.37Zm-6.05,9.21,1.35-4a2.71,2.71,0,0,0-1.31-1,2,2,0,0,0-1.78.17,3.17,3.17,0,0,0-1.21,1.76,3.08,3.08,0,0,0-.08,2,1.87,1.87,0,0,0,1.23,1.19A2.41,2.41,0,0,0,281.37,473.8Z" transform="translate(-232.2 -355.13)"/>
    <path class="cls-1" d="M291.65,469.4l-.29,2.52h0c1-1.71,2-2.5,3.11-2.38a3.33,3.33,0,0,1,1.74,1l-1,2.37a3.27,3.27,0,0,0-1.57-.84,1.89,1.89,0,0,0-1.75,1,5.57,5.57,0,0,0-.81,1.31l-.44,3.81-2.76-.32,1-8.79Z" transform="translate(-232.2 -355.13)"/>
    <path class="cls-1" d="M307.23,475.83l.12,1.54a5.17,5.17,0,0,1-2.53,1c-.87.08-1.42-.21-1.63-.86a5.15,5.15,0,0,1-2.83,1.23,2.59,2.59,0,0,1-1.8-.51,2,2,0,0,1-.84-1.46,2.48,2.48,0,0,1,.59-1.91c.46-.52,1.91-1.24,4.35-2.19q0-1.49-1.65-1.35a4.52,4.52,0,0,0-3.13,1.74l-.18-2.26a7.2,7.2,0,0,1,3.73-1.39q3.74-.3,4,2.39l.32,4c0,.41.21.6.51.58A2.19,2.19,0,0,0,307.23,475.83Zm-4.28.38-.17-2.14a8,8,0,0,0-1.84,1,1.2,1.2,0,0,0-.44,1,1,1,0,0,0,.31.64.85.85,0,0,0,.66.22A2.28,2.28,0,0,0,303,476.21Z" transform="translate(-232.2 -355.13)"/>
    <path class="cls-1" d="M316.66,466.2l.54,1.79-1.21.36a2.88,2.88,0,0,1,.85,1.29,2.82,2.82,0,0,1-.18,2,3.42,3.42,0,0,1-1.88,1.65,6.23,6.23,0,0,0-1.54.79.43.43,0,0,0-.08.42.42.42,0,0,0,.36.29,9,9,0,0,0,2.06-.31,3.7,3.7,0,0,1,2.68.18,2.53,2.53,0,0,1,.66,3.88,6.54,6.54,0,0,1-3.11,1.74,7.06,7.06,0,0,1-3.58.35,2.1,2.1,0,0,1-1.69-1.43c-.31-1,.23-2,1.61-2.84-.74,0-1.2-.26-1.36-.8s.2-1.2,1.16-1.75a3,3,0,0,1-2-.38,2.51,2.51,0,0,1-1.19-1.51,3,3,0,0,1,.31-2.44,4.06,4.06,0,0,1,2.54-1.79Zm-4.32,3a1.56,1.56,0,0,0-1,.78,1.59,1.59,0,0,0-.11,1.23,1.56,1.56,0,0,0,.78.93,1.54,1.54,0,0,0,1.22.12,1.45,1.45,0,0,0,.93-.8,1.65,1.65,0,0,0,.11-1.27,1.49,1.49,0,0,0-.75-.9A1.56,1.56,0,0,0,312.34,469.24Zm3.12,9.47a2.87,2.87,0,0,0,1.28-.74.92.92,0,0,0,.3-.91c-.19-.62-1-.73-2.35-.31a3.44,3.44,0,0,0-1.4.73.87.87,0,0,0-.32.89C313.18,479,314,479.15,315.46,478.71Z" transform="translate(-232.2 -355.13)"/>
    <path class="cls-1" d="M325,461.48l.45.63a3.75,3.75,0,0,1,1.5-2.26,3.79,3.79,0,0,1,3.12-.65,4.58,4.58,0,0,1,2.84,1.9,4.84,4.84,0,0,1,1,3.47,4.12,4.12,0,0,1-1.81,2.89,4.44,4.44,0,0,1-2.21.84l2.84,3.94-2.26,1.63-7.76-10.76Zm1.47,2,2.38,3.3a2.65,2.65,0,0,0,1.64-.47,2,2,0,0,0,.88-1.53,3,3,0,0,0-.66-1.94,3.22,3.22,0,0,0-1.6-1.28,1.86,1.86,0,0,0-1.66.34A2.75,2.75,0,0,0,326.44,463.51Z" transform="translate(-232.2 -355.13)"/>
    <path class="cls-1" d="M330.82,450.89l4.22,3.59,0,0a3.48,3.48,0,0,1,.68-3.09,3.24,3.24,0,0,1,2.2-1.2,3.36,3.36,0,0,1,2.49.92l4.3,3.66-1.8,2.12-3.86-3.28c-1-.83-1.78-.88-2.4-.16a2.48,2.48,0,0,0-.19,2.29l4.31,3.67L339,461.5,329,453Z" transform="translate(-232.2 -355.13)"/>
    <path class="cls-1" d="M341.56,442.27a5.37,5.37,0,0,1,2.66-2.62,4.2,4.2,0,0,1,3.69.22,4.1,4.1,0,0,1,2.38,2.82,5.42,5.42,0,0,1-.48,3.68,5.16,5.16,0,0,1-2.75,2.66,4.31,4.31,0,0,1-3.6-.23A4.21,4.21,0,0,1,341.1,446,5.26,5.26,0,0,1,341.56,442.27Zm6.77,3.36q.89-1.78-1.81-3.13t-3.47.51a1.73,1.73,0,0,0,0,1.68,3.67,3.67,0,0,0,1.71,1.45C346.54,447,347.73,446.85,348.33,445.63Z" transform="translate(-232.2 -355.13)"/>
    <path class="cls-1" d="M346.14,429.53,348,430l-.82,3.12,3.53.93a1.43,1.43,0,0,0,1.09-.09,1.28,1.28,0,0,0,.62-.87,4.07,4.07,0,0,0,0-1.93l1.95.51a6.72,6.72,0,0,1-.12,2.63,3.55,3.55,0,0,1-1.46,2.24,3.28,3.28,0,0,1-2.62.24l-3.67-1-.32,1.22-.53-.14-3.07-4.63.09-.33,2.69.7Z" transform="translate(-232.2 -355.13)"/>
    <path class="cls-1" d="M346.57,423.15a5.28,5.28,0,0,1,1.4-3.46,4.21,4.21,0,0,1,3.47-1.27,4.15,4.15,0,0,1,3.31,1.65,5.37,5.37,0,0,1,1,3.57,5.17,5.17,0,0,1-1.47,3.53,4.32,4.32,0,0,1-3.39,1.22,4.22,4.22,0,0,1-3.26-1.6A5.19,5.19,0,0,1,346.57,423.15Zm7.54.4c.08-1.33-.89-2.05-2.9-2.16s-2.91.52-3,1.85a1.72,1.72,0,0,0,.68,1.53,3.75,3.75,0,0,0,2.14.65C353,425.53,354,424.9,354.11,423.55Z" transform="translate(-232.2 -355.13)"/>
    <path class="cls-1" d="M342.78,400.61l1.79-.64,1.08,3,3.44-1.22a1.49,1.49,0,0,0,.86-.69,1.36,1.36,0,0,0,0-1.07,4,4,0,0,0-1.11-1.58l1.9-.68a6.82,6.82,0,0,1,1.38,2.25,3.53,3.53,0,0,1,.05,2.67,3.18,3.18,0,0,1-2,1.67l-3.57,1.28.42,1.19-.51.18-5.15-2.1-.11-.33,2.62-.93Z" transform="translate(-232.2 -355.13)"/>
    <path class="cls-1" d="M339.55,395.11a5.33,5.33,0,0,1-.79-3.65,4.24,4.24,0,0,1,2.15-3,4.12,4.12,0,0,1,3.66-.49,5.32,5.32,0,0,1,2.85,2.37,5.13,5.13,0,0,1,.77,3.75,4.29,4.29,0,0,1-2.11,2.92,4.24,4.24,0,0,1-3.6.51A5.22,5.22,0,0,1,339.55,395.11Zm6.46-3.92c-.69-1.14-1.9-1.19-3.61-.15s-2.12,2.07-1.43,3.21a1.74,1.74,0,0,0,1.42.88,3.8,3.8,0,0,0,2.15-.67Q347.06,392.93,346,391.19Z" transform="translate(-232.2 -355.13)"/>
    <path class="cls-1" d="M335.8,376.54l-2.7,9.53-2.28-1.93,1.72-4.93-4.61,2.48-2.25-1.9,8.94-4.25Z" transform="translate(-232.2 -355.13)"/>
    <path class="cls-1" d="M323.21,381.85a1.55,1.55,0,0,1-2.11.5,1.49,1.49,0,0,1-.69-1,1.44,1.44,0,0,1,.19-1.16,1.46,1.46,0,0,1,.95-.69,1.48,1.48,0,0,1,1.16.18,1.44,1.44,0,0,1,.68,1A1.48,1.48,0,0,1,323.21,381.85Zm-1-4,4.65-7.54,2.37,1.47-4.65,7.53Z" transform="translate(-232.2 -355.13)"/>
    <path class="cls-1" d="M314.55,367.64l.67-1.62a6.51,6.51,0,0,1,4.09.43,5.38,5.38,0,0,1,3,2.58,4.23,4.23,0,0,1,0,3.6,4.49,4.49,0,0,1-6.08,2.51,4.43,4.43,0,0,1-2.57-2.55,4.83,4.83,0,0,1,.27-3.87l5.88,2.43a2.55,2.55,0,0,0-.08-2,3.08,3.08,0,0,0-1.66-1.39A5.62,5.62,0,0,0,314.55,367.64Zm4.65,4.84L315.65,371a1.92,1.92,0,1,0,3.55,1.47Z" transform="translate(-232.2 -355.13)"/>
    <path class="cls-1" d="M303.78,367.44l2.78-4.53,1.29.15,2.93,9.42-2.82-.33-1.29-5.06-2.53,4.62-1.68-.2-1.38-5.06-2.41,4.62-2.83-.32,5-8.5,1.31.15Z" transform="translate(-232.2 -355.13)"/>
    <path class="cls-1" d="M285.36,369.49l.6,2.23a1.84,1.84,0,0,0-1.15.78,1.49,1.49,0,0,0-.19,1.19,1.36,1.36,0,0,0,.79.91,2.07,2.07,0,0,0,1.4.08,5.65,5.65,0,0,0,2.15-1.24l.6,2.23a7.44,7.44,0,0,1-2.74,1.32,4.82,4.82,0,0,1-3.16-.08,2.79,2.79,0,0,1-1.72-1.93,3.32,3.32,0,0,1,1.09-3.43,3.34,3.34,0,0,1-3.09-2.66,3.42,3.42,0,0,1,.51-3,5.15,5.15,0,0,1,3-1.89,7.16,7.16,0,0,1,3.28-.11l.66,2.46a4.79,4.79,0,0,0-2.94-.29,2.23,2.23,0,0,0-1.31.84,1.6,1.6,0,0,0-.23,1.36,1.7,1.7,0,0,0,.87,1.1A2.17,2.17,0,0,0,285.36,369.49Z" transform="translate(-232.2 -355.13)"/>
    <path class="cls-1" d="M274,382.27l.34-5.79a3.61,3.61,0,0,1-.72.51,3.3,3.3,0,0,1-2.75.18,4.19,4.19,0,0,1-2.33-2.14,4.43,4.43,0,0,1-.42-3.41,4.44,4.44,0,0,1,5.51-2.92,4.68,4.68,0,0,1,2.64,2.39,10,10,0,0,1,.84,5.37l-.27,4.3Zm-2.63-11a1.29,1.29,0,0,0-.71,1,2.67,2.67,0,0,0,1.34,2.5,1.35,1.35,0,0,0,1.22,0,1.31,1.31,0,0,0,.69-1,2.43,2.43,0,0,0-.34-1.47,2.24,2.24,0,0,0-1-1A1.32,1.32,0,0,0,271.41,371.23Z" transform="translate(-232.2 -355.13)"/>
    <path class="cls-1" d="M268.14,386.73a3.66,3.66,0,0,1-3.62.78,8.83,8.83,0,0,1-4.08-2.9,9.29,9.29,0,0,1-2.42-4.5,3.63,3.63,0,0,1,1.27-3.49,3.79,3.79,0,0,1,3.67-.84,8.88,8.88,0,0,1,4.14,2.94,8.67,8.67,0,0,1,2.34,4.53A3.75,3.75,0,0,1,268.14,386.73Zm-7.21-8.28a1.23,1.23,0,0,0-.24,1.47,12,12,0,0,0,2.08,2.93,9.54,9.54,0,0,0,2.3,2.1,1.2,1.2,0,0,0,1.47-.09,1.22,1.22,0,0,0,.3-1.43,10.69,10.69,0,0,0-2-2.89,9.57,9.57,0,0,0-2.35-2.14A1.26,1.26,0,0,0,260.93,378.45Z" transform="translate(-232.2 -355.13)"/>
    <path class="cls-1" d="M255.17,383a1.61,1.61,0,0,1,.58,1.13,1.57,1.57,0,0,1-.37,1.22,1.59,1.59,0,0,1-1.14.6,1.62,1.62,0,0,1-1.22-.37,1.64,1.64,0,0,1-.59-1.14,1.6,1.6,0,0,1,.39-1.22,1.58,1.58,0,0,1,1.12-.59A1.62,1.62,0,0,1,255.17,383Z" transform="translate(-232.2 -355.13)"/>
    <path class="cls-1" d="M251.86,387.14a1.68,1.68,0,0,1,.43,2.32,1.64,1.64,0,0,1-1.07.7,1.66,1.66,0,0,1-1.95-1.34,1.64,1.64,0,0,1,.27-1.25,1.68,1.68,0,0,1,2.32-.43Z" transform="translate(-232.2 -355.13)"/>
    <path class="cls-1" d="M248.94,391.55a1.56,1.56,0,0,1,.79,1,1.65,1.65,0,0,1-1.15,2.06,1.58,1.58,0,0,1-1.26-.14,1.6,1.6,0,0,1-.8-1,1.68,1.68,0,0,1,.15-1.28,1.65,1.65,0,0,1,1-.79A1.57,1.57,0,0,1,248.94,391.55Z" transform="translate(-232.2 -355.13)"/>
  </g>
  <g class="icon-drag">
    <path class="cls-2" d="M274.31,438.07l.12.11,13.79,11.66.13.11,4.73-5.58L279,432.48Z" transform="translate(-232.2 -355.13)"/>
    <path class="cls-2" d="M297.59,382.13A38.39,38.39,0,1,0,336,420.52,38.39,38.39,0,0,0,297.59,382.13ZM305.41,393l11.53-2,0,11.7L314,400.29l-3.64,4.31-5.74-4.86,3.65-4.31Zm-9.88-.56-2.44,2.88L297.4,399l-4.85,5.74-4.31-3.65-2.44,2.88-2-11.54Zm11.07,43.11-10.51,9.63-5.71,6.74a2.5,2.5,0,0,1-1.74,1,1.48,1.48,0,0,1-.42,0,3.47,3.47,0,0,1-1.83-.92L272.6,440.34a3.47,3.47,0,0,1-1.2-1.65,2.43,2.43,0,0,1,.62-2.3l5.32-6.28c-.55-2.56-2.41-11.37-2.69-13.19a6.89,6.89,0,0,1,1.71-6.08c2.1-2.48,6.18-2.33,8.29-.54,1.92,1.62,2.75,4.08,3.53,6.47l9-10.6a6.57,6.57,0,0,1,3.92-2.48,5,5,0,0,1,4.09,1.28,5.38,5.38,0,0,1,2.12,3.67,6.32,6.32,0,0,1-1.81,4.57l-2.88,3.4c-.08.11-.21.23-.35.38-1.05,1.05-1.39,1.63-.32,2.78s2.2,2.41,3.09,3.4,1.67,1.88,2.37,2.6a6.46,6.46,0,0,1,2.11,4.65C309.42,432.15,308.45,433.88,306.6,435.55Zm2.75-11.69,2.44-2.88-4.31-3.65,4.85-5.73,4.31,3.64,2.44-2.88,2,11.54Z" transform="translate(-232.2 -355.13)"/>
    <path class="cls-2" d="M302.9,425.06c-.88-1-1.88-2.1-3.06-3.37-2-2.17-1.88-4.42.39-6.7l.2-.2,2.88-3.41a3.73,3.73,0,0,0,1.15-2.5,2.7,2.7,0,0,0-1.12-1.75,2.23,2.23,0,0,0-1.83-.64,4,4,0,0,0-2.2,1.5l-12.09,14.3-.87-2.2c-.31-.78-.57-1.59-.83-2.37-.7-2.13-1.37-4.14-2.69-5.26-.95-.8-3.26-1-4.31.21a4.09,4.09,0,0,0-1.07,3.84c.27,1.76,2.23,11,2.7,13.21L295,442.31l9.67-8.86c1.27-1.14,1.93-2.2,2-3.14a3.85,3.85,0,0,0-1.32-2.58C304.61,427,303.81,426.08,302.9,425.06Z" transform="translate(-232.2 -355.13)"/>
  </g>
  <g class="icon-drag">
    <path class="cls-3" d="M274.31,438.07l.12.11,13.79,11.66.13.11,4.73-5.58L279,432.48Z" transform="translate(-232.2 -355.13)"/>
    <path class="cls-3" d="M297.59,382.13A38.39,38.39,0,1,0,336,420.52,38.39,38.39,0,0,0,297.59,382.13ZM305.41,393l11.53-2,0,11.7L314,400.29l-3.64,4.31-5.74-4.86,3.65-4.31Zm-9.88-.56-2.44,2.88L297.4,399l-4.85,5.74-4.31-3.65-2.44,2.88-2-11.54Zm11.07,43.11-10.51,9.63-5.71,6.74a2.5,2.5,0,0,1-1.74,1,1.48,1.48,0,0,1-.42,0,3.47,3.47,0,0,1-1.83-.92L272.6,440.34a3.47,3.47,0,0,1-1.2-1.65,2.43,2.43,0,0,1,.62-2.3l5.32-6.28c-.55-2.56-2.41-11.37-2.69-13.19a6.89,6.89,0,0,1,1.71-6.08c2.1-2.48,6.18-2.33,8.29-.54,1.92,1.62,2.75,4.08,3.53,6.47l9-10.6a6.57,6.57,0,0,1,3.92-2.48,5,5,0,0,1,4.09,1.28,5.38,5.38,0,0,1,2.12,3.67,6.32,6.32,0,0,1-1.81,4.57l-2.88,3.4c-.08.11-.21.23-.35.38-1.05,1.05-1.39,1.63-.32,2.78s2.2,2.41,3.09,3.4,1.67,1.88,2.37,2.6a6.46,6.46,0,0,1,2.11,4.65C309.42,432.15,308.45,433.88,306.6,435.55Zm2.75-11.69,2.44-2.88-4.31-3.65,4.85-5.73,4.31,3.64,2.44-2.88,2,11.54Z" transform="translate(-232.2 -355.13)"/>
    <path class="cls-3" d="M302.9,425.06c-.88-1-1.88-2.1-3.06-3.37-2-2.17-1.88-4.42.39-6.7l.2-.2,2.88-3.41a3.73,3.73,0,0,0,1.15-2.5,2.7,2.7,0,0,0-1.12-1.75,2.23,2.23,0,0,0-1.83-.64,4,4,0,0,0-2.2,1.5l-12.09,14.3-.87-2.2c-.31-.78-.57-1.59-.83-2.37-.7-2.13-1.37-4.14-2.69-5.26-.95-.8-3.26-1-4.31.21a4.09,4.09,0,0,0-1.07,3.84c.27,1.76,2.23,11,2.7,13.21L295,442.31l9.67-8.86c1.27-1.14,1.93-2.2,2-3.14a3.85,3.85,0,0,0-1.32-2.58C304.61,427,303.81,426.08,302.9,425.06Z" transform="translate(-232.2 -355.13)"/>
  </g>
  <!-- <circle class="cls-3" cx="65.39" cy="65.39" r="65.26"/> -->
</svg>
