<svg id="Layer_1" data-name="Layer 1" xmlns="http://www.w3.org/2000/svg" viewBox="0 0 121.86 120.28">
  <defs>
    <style>
      .cls-1 {
        fill: #39c0c4;
      }

      .cls-2, .cls {
        fill: #fff;
      }

      g.icon-drag {
        opacity: .4;
        -webkit-animation: move .7s ease infinite;
        -moz-animation: move .7s ease infinite;
        -o-animation: move .7s ease infinite;
        animation: move .7s ease infinite;
      }

      @-webkit-keyframes move {
        0%{
            opacity:1;
        }
        50%{
            opacity:.4;
        }
        100%{
            opacity:1;
        }
      }
    </style>
  </defs>
  <title>drag360</title>


  <g class="icon-drag">
    <path class="cls-1" d="M259.91,433.13l.18.15,19.93,16,.19.14,6.47-8.07-20.31-16.25Z" transform="translate(-237.66 -360.62)"/>
    <path class="cls-1" d="M299.82,413.65c-1.28-1.35-2.74-2.9-4.45-4.64-2.92-3-2.82-6.18.3-9.48l.28-.3,3.94-4.93c1.12-1.4,1.63-2.6,1.52-3.58a3.84,3.84,0,0,0-1.65-2.43,3.17,3.17,0,0,0-2.61-.83,5.54,5.54,0,0,0-3,2.21l-16.55,20.67-1.31-3.08c-.46-1.1-.87-2.23-1.26-3.32-1.08-3-2.09-5.79-4-7.33a5,5,0,0,0-3.12-.86,4,4,0,0,0-3,1.32,5.78,5.78,0,0,0-1.38,5.47c.46,2.48,3.58,15.48,4.32,18.57l21.52,17.22,13.33-12.89c1.75-1.66,2.64-3.18,2.65-4.51s-1-2.68-2-3.6S301.16,415.06,299.82,413.65Z" transform="translate(-237.66 -360.62)"/>
    <path class="cls-1" d="M289.83,360.62a50.51,50.51,0,1,0,50.5,50.51A50.5,50.5,0,0,0,289.83,360.62ZM304.3,375l7.57-1.51.18,7.72-1.56-1.25-3.16,3.95-4.64-3.72,3.16-3.94ZM283,377.33l-1.24,1.55,3.95,3.16L282,386.68l-3.95-3.16-1.24,1.56-1.51-7.57Zm22.41,51-14.48,14-7.81,9.76a3.54,3.54,0,0,1-2.73,1.49,4.77,4.77,0,0,1-2.91-1.23l-19.93-16a4.86,4.86,0,0,1-1.77-2.28,3.43,3.43,0,0,1,.79-3.27l7.28-9.09c-.87-3.59-3.84-16-4.31-18.54a9.78,9.78,0,0,1,2.19-8.65,7.82,7.82,0,0,1,5.89-2.81,8.82,8.82,0,0,1,5.81,1.73c2.78,2.22,4,5.66,5.24,9L291,387.17a9.26,9.26,0,0,1,5.44-3.65,7.13,7.13,0,0,1,5.84,1.65,7.7,7.7,0,0,1,3.13,5.11c.23,2.07-.57,4.26-2.38,6.52l-3.89,4.86a7.61,7.61,0,0,1-.54.61c-1.44,1.52-1.9,2.35-.35,3.94,1.73,1.76,3.2,3.32,4.5,4.7s2.44,2.58,3.45,3.58c1.37,1.36,3.19,3.5,3.16,6.48C309.32,423.43,308,425.9,305.45,428.33ZM307.91,410l1.25-1.55-4-3.16,3.71-4.65,3.95,3.16,1.25-1.55,1.51,7.57Z" transform="translate(-237.66 -360.62)"/>
    <path class="cls-2" d="M242.11,461.55a7.83,7.83,0,0,1-2.5-1.93c-2.84-3.09-2.39-6.44.15-8.79,3-2.8,6.74-2.2,9.23.5a7.42,7.42,0,0,1,1.63,2.56l-2,1.07a6,6,0,0,0-1.23-2,4,4,0,0,0-5.85,5.42,6.86,6.86,0,0,0,1.84,1.41Z" transform="translate(-237.66 -360.62)"/>
    <path class="cls-2" d="M251.56,454.15l2.17,1.71-6.09,7.71,3.78,3L250,468.37l-5.95-4.69Z" transform="translate(-237.66 -360.62)"/>
    <path class="cls-2" d="M260.38,460.52l-6.47,10.26-2.33-1.47,6.47-10.26Z" transform="translate(-237.66 -360.62)"/>
    <path class="cls-2" d="M264.53,475.8a7.84,7.84,0,0,1-3-.86c-3.79-1.79-4.63-5.07-3.15-8.19,1.77-3.75,5.42-4.57,8.74-3a7.16,7.16,0,0,1,2.47,1.77l-1.44,1.73a5.78,5.78,0,0,0-1.89-1.39,4,4,0,0,0-3.39,7.21,7.11,7.11,0,0,0,2.24.62Z" transform="translate(-237.66 -360.62)"/>
    <path class="cls-2" d="M270.58,465.48l2.63.71-1.4,5.18h.05c.38-.38.77-.72,1.15-1.07l3.71-3.18L280,468,274.75,472l2.26,7.83-3.09-.83-1.5-5.83-1.34,1-1,3.82-2.62-.71Z" transform="translate(-237.66 -360.62)"/>
    <path class="cls-2" d="M283.07,474.79l-.26,1.8-4.67-.66.26-1.8Z" transform="translate(-237.66 -360.62)"/>
    <path class="cls-2" d="M284.83,468.85a23.83,23.83,0,0,1,3.7-.31,7.77,7.77,0,0,1,5,1.22,5.34,5.34,0,0,1,2.12,4.53,6.14,6.14,0,0,1-1.94,4.95,8.72,8.72,0,0,1-5.57,1.65,22.25,22.25,0,0,1-3.11-.13Zm2.91,9.85a4.65,4.65,0,0,0,.95,0c2.49,0,4.08-1.41,4-4.31a3.48,3.48,0,0,0-3.88-3.79,5.53,5.53,0,0,0-1.24.13Z" transform="translate(-237.66 -360.62)"/>
    <path class="cls-2" d="M296.67,468.51a23.4,23.4,0,0,1,3.54-.93,6.24,6.24,0,0,1,4,.19,3.1,3.1,0,0,1,1.58,2.29,3.23,3.23,0,0,1-1.54,3.34v.05a3.09,3.09,0,0,1,2,1.92,33.81,33.81,0,0,0,1.61,3.18l-2.76.53a14.94,14.94,0,0,1-1.36-2.62c-.6-1.43-1.19-1.73-2.29-1.54l-.82.15.9,4.69-2.67.51Zm3.65,4.62,1.06-.21c1.35-.25,2-1.08,1.81-2.12s-1.06-1.5-2.3-1.28a6.78,6.78,0,0,0-1.2.32Z" transform="translate(-237.66 -360.62)"/>
    <path class="cls-2" d="M312.55,473.67l.34,3.21-2.64,1.05-1-12.65,3.35-1.32,8,9.89-2.74,1.09-2-2.55Zm2.11-3L313,468.51c-.47-.59-1-1.35-1.43-1.95h0c.1.74.27,1.66.35,2.38l.27,2.66Z" transform="translate(-237.66 -360.62)"/>
    <path class="cls-2" d="M331.3,466.59a13.57,13.57,0,0,1-3.05,2.76,6.77,6.77,0,0,1-5,1.27,5.89,5.89,0,0,1-3.82-2.8c-2.15-3.41-.91-6.93,2.44-9.07a8.5,8.5,0,0,1,3.16-1.31l.7,2.16a6.78,6.78,0,0,0-2.67,1.08,4,4,0,0,0,4.08,6.77,3.59,3.59,0,0,0,1-.88l-1.36-2.14-1.58,1-1.15-1.81,3.81-2.42Z" transform="translate(-237.66 -360.62)"/>
    <path class="cls-2" d="M332,451.36l1.8,1.76,1.37-1.4,1.44,1.41-1.37,1.41,2.27,2.23c.76.74,1.28.9,1.86.31a4.46,4.46,0,0,0,.52-.62l1.49,1.43a5.35,5.35,0,0,1-1.08,1.44,2.84,2.84,0,0,1-2,.93,3.6,3.6,0,0,1-2.39-1.29l-2.57-2.52-.82.84-1.44-1.42.82-.83-1.37-1.34Z" transform="translate(-237.66 -360.62)"/>
    <path class="cls-2" d="M344.56,446.69a4.42,4.42,0,0,1,.95,6.54,4.31,4.31,0,0,1-6.36.9,4.4,4.4,0,0,1-.89-6.56A4.28,4.28,0,0,1,344.56,446.69Zm-3.77,5.14c1.21.91,2.49,1.09,3.2.16s.21-2-1.06-3c-1.05-.79-2.41-1.19-3.16-.2S339.76,451.05,340.79,451.83Z" transform="translate(-237.66 -360.62)"/>
    <path class="cls-2" d="M352,442.49l-12.62-1.69,1.29-2.72,5.26.87c1.48.24,2.89.5,4.38.89l0,0c-1.18-.9-2.32-1.86-3.39-2.83l-4-3.62,1.25-2.64,9.2,8.9Z" transform="translate(-237.66 -360.62)"/>
    <path class="cls-2" d="M345.58,428.48a1.39,1.39,0,0,1,.83,1.84,1.38,1.38,0,1,1-2.61-.9A1.37,1.37,0,0,1,345.58,428.48Zm9.75,6.29L347,431.94l.88-2.59,8.34,2.83Z" transform="translate(-237.66 -360.62)"/>
    <path class="cls-2" d="M354,427c1.12.16,1.89-.82,2.17-2.06a7.53,7.53,0,0,0,.18-2.45l1.89.05a8.75,8.75,0,0,1-.17,3.22c-.65,2.92-2.7,4.22-5.39,3.62a4.41,4.41,0,0,1-3.63-5.36c.62-2.78,3-3.35,5.14-2.88a6.34,6.34,0,0,1,1,.32Zm-1.13-3.55a1.59,1.59,0,0,0-2.08,1.12,1.8,1.8,0,0,0,1.38,2Z" transform="translate(-237.66 -360.62)"/>
    <path class="cls-2" d="M350.48,416.93l3.62-.59c.92-.15,1.9-.3,2.91-.41v0c-1-.21-2-.49-2.85-.74l-3.59-1,.07-2.16,3.53-.77c1-.21,2-.41,3-.56v0c-1-.16-2-.37-3-.6l-3.46-.87.08-2.68,8.71,3-.08,2.57-3.12.73c-.87.19-1.67.33-2.75.47v0a20.13,20.13,0,0,1,2.72.66l3.06,1-.08,2.57-8.88,2.28Z" transform="translate(-237.66 -360.62)"/>
    <path class="cls-2" d="M356.16,401.43a6.5,6.5,0,0,0,.17-2.81c-.29-1.39-1.1-2-2-1.79-1.12.23-1.41,1.46-1.17,2.65l.23,1.09-1.93.39-.21-1c-.2-.9-.77-2-1.74-1.78-.68.14-1.08.81-.85,1.94a5.37,5.37,0,0,0,1.17,2.26l-1.83.94a7.35,7.35,0,0,1-1.58-3.37c-.5-2.45.51-4.07,2.08-4.39a2.8,2.8,0,0,1,3.09,1.56h0a2.89,2.89,0,0,1,2.28-3.05c2-.42,3.87,1.06,4.46,4a6.88,6.88,0,0,1-.12,3.57Z" transform="translate(-237.66 -360.62)"/>
    <path class="cls-2" d="M344.69,387a10.61,10.61,0,0,0,.41,1c1,2.2,2.59,2.77,4,2.58l0,0a3.3,3.3,0,0,1-1.75-2,3.55,3.55,0,0,1,2.29-4.73,4.18,4.18,0,0,1,5.48,2.55c1.11,2.91-.53,5.16-3.14,6.15a6.49,6.49,0,0,1-8.81-3.72,8.54,8.54,0,0,1-.41-1Zm6-.68a1.77,1.77,0,0,0,.28,3.49,1.45,1.45,0,0,0,.68-.14c1.15-.49,2-1.44,1.54-2.6C352.87,386.13,351.83,385.87,350.71,386.29Z" transform="translate(-237.66 -360.62)"/>
    <path class="cls-2" d="M342.93,375.64c3.13-1.8,6-1.77,7.5.82s-.19,5.13-3.05,6.79-6,1.77-7.49-.85S340.15,377.23,342.93,375.64Zm3.08,5.22c2.33-1.32,3.12-2.51,2.59-3.43s-2-.76-4.28.56-3.16,2.46-2.61,3.41S343.66,382.23,346,380.86Z" transform="translate(-237.66 -360.62)"/>
  </g>
    <g>
    <path class="cls" d="M242.11,461.55a7.83,7.83,0,0,1-2.5-1.93c-2.84-3.09-2.39-6.44.15-8.79,3-2.8,6.74-2.2,9.23.5a7.42,7.42,0,0,1,1.63,2.56l-2,1.07a6,6,0,0,0-1.23-2,4,4,0,0,0-5.85,5.42,6.86,6.86,0,0,0,1.84,1.41Z" transform="translate(-237.66 -360.62)"/>
    <path class="cls" d="M251.56,454.15l2.17,1.71-6.09,7.71,3.78,3L250,468.37l-5.95-4.69Z" transform="translate(-237.66 -360.62)"/>
    <path class="cls" d="M260.38,460.52l-6.47,10.26-2.33-1.47,6.47-10.26Z" transform="translate(-237.66 -360.62)"/>
    <path class="cls" d="M264.53,475.8a7.84,7.84,0,0,1-3-.86c-3.79-1.79-4.63-5.07-3.15-8.19,1.77-3.75,5.42-4.57,8.74-3a7.16,7.16,0,0,1,2.47,1.77l-1.44,1.73a5.78,5.78,0,0,0-1.89-1.39,4,4,0,0,0-3.39,7.21,7.11,7.11,0,0,0,2.24.62Z" transform="translate(-237.66 -360.62)"/>
    <path class="cls" d="M270.58,465.48l2.63.71-1.4,5.18h.05c.38-.38.77-.72,1.15-1.07l3.71-3.18L280,468,274.75,472l2.26,7.83-3.09-.83-1.5-5.83-1.34,1-1,3.82-2.62-.71Z" transform="translate(-237.66 -360.62)"/>
    <path class="cls" d="M283.07,474.79l-.26,1.8-4.67-.66.26-1.8Z" transform="translate(-237.66 -360.62)"/>
    <path class="cls" d="M284.83,468.85a23.83,23.83,0,0,1,3.7-.31,7.77,7.77,0,0,1,5,1.22,5.34,5.34,0,0,1,2.12,4.53,6.14,6.14,0,0,1-1.94,4.95,8.72,8.72,0,0,1-5.57,1.65,22.25,22.25,0,0,1-3.11-.13Zm2.91,9.85a4.65,4.65,0,0,0,.95,0c2.49,0,4.08-1.41,4-4.31a3.48,3.48,0,0,0-3.88-3.79,5.53,5.53,0,0,0-1.24.13Z" transform="translate(-237.66 -360.62)"/>
    <path class="cls" d="M296.67,468.51a23.4,23.4,0,0,1,3.54-.93,6.24,6.24,0,0,1,4,.19,3.1,3.1,0,0,1,1.58,2.29,3.23,3.23,0,0,1-1.54,3.34v.05a3.09,3.09,0,0,1,2,1.92,33.81,33.81,0,0,0,1.61,3.18l-2.76.53a14.94,14.94,0,0,1-1.36-2.62c-.6-1.43-1.19-1.73-2.29-1.54l-.82.15.9,4.69-2.67.51Zm3.65,4.62,1.06-.21c1.35-.25,2-1.08,1.81-2.12s-1.06-1.5-2.3-1.28a6.78,6.78,0,0,0-1.2.32Z" transform="translate(-237.66 -360.62)"/>
    <path class="cls" d="M312.55,473.67l.34,3.21-2.64,1.05-1-12.65,3.35-1.32,8,9.89-2.74,1.09-2-2.55Zm2.11-3L313,468.51c-.47-.59-1-1.35-1.43-1.95h0c.1.74.27,1.66.35,2.38l.27,2.66Z" transform="translate(-237.66 -360.62)"/>
    <path class="cls" d="M331.3,466.59a13.57,13.57,0,0,1-3.05,2.76,6.77,6.77,0,0,1-5,1.27,5.89,5.89,0,0,1-3.82-2.8c-2.15-3.41-.91-6.93,2.44-9.07a8.5,8.5,0,0,1,3.16-1.31l.7,2.16a6.78,6.78,0,0,0-2.67,1.08,4,4,0,0,0,4.08,6.77,3.59,3.59,0,0,0,1-.88l-1.36-2.14-1.58,1-1.15-1.81,3.81-2.42Z" transform="translate(-237.66 -360.62)"/>
    <path class="cls" d="M332,451.36l1.8,1.76,1.37-1.4,1.44,1.41-1.37,1.41,2.27,2.23c.76.74,1.28.9,1.86.31a4.46,4.46,0,0,0,.52-.62l1.49,1.43a5.35,5.35,0,0,1-1.08,1.44,2.84,2.84,0,0,1-2,.93,3.6,3.6,0,0,1-2.39-1.29l-2.57-2.52-.82.84-1.44-1.42.82-.83-1.37-1.34Z" transform="translate(-237.66 -360.62)"/>
    <path class="cls" d="M344.56,446.69a4.42,4.42,0,0,1,.95,6.54,4.31,4.31,0,0,1-6.36.9,4.4,4.4,0,0,1-.89-6.56A4.28,4.28,0,0,1,344.56,446.69Zm-3.77,5.14c1.21.91,2.49,1.09,3.2.16s.21-2-1.06-3c-1.05-.79-2.41-1.19-3.16-.2S339.76,451.05,340.79,451.83Z" transform="translate(-237.66 -360.62)"/>
    <path class="cls" d="M352,442.49l-12.62-1.69,1.29-2.72,5.26.87c1.48.24,2.89.5,4.38.89l0,0c-1.18-.9-2.32-1.86-3.39-2.83l-4-3.62,1.25-2.64,9.2,8.9Z" transform="translate(-237.66 -360.62)"/>
    <path class="cls" d="M345.58,428.48a1.39,1.39,0,0,1,.83,1.84,1.38,1.38,0,1,1-2.61-.9A1.37,1.37,0,0,1,345.58,428.48Zm9.75,6.29L347,431.94l.88-2.59,8.34,2.83Z" transform="translate(-237.66 -360.62)"/>
    <path class="cls" d="M354,427c1.12.16,1.89-.82,2.17-2.06a7.53,7.53,0,0,0,.18-2.45l1.89.05a8.75,8.75,0,0,1-.17,3.22c-.65,2.92-2.7,4.22-5.39,3.62a4.41,4.41,0,0,1-3.63-5.36c.62-2.78,3-3.35,5.14-2.88a6.34,6.34,0,0,1,1,.32Zm-1.13-3.55a1.59,1.59,0,0,0-2.08,1.12,1.8,1.8,0,0,0,1.38,2Z" transform="translate(-237.66 -360.62)"/>
    <path class="cls" d="M350.48,416.93l3.62-.59c.92-.15,1.9-.3,2.91-.41v0c-1-.21-2-.49-2.85-.74l-3.59-1,.07-2.16,3.53-.77c1-.21,2-.41,3-.56v0c-1-.16-2-.37-3-.6l-3.46-.87.08-2.68,8.71,3-.08,2.57-3.12.73c-.87.19-1.67.33-2.75.47v0a20.13,20.13,0,0,1,2.72.66l3.06,1-.08,2.57-8.88,2.28Z" transform="translate(-237.66 -360.62)"/>
    <path class="cls" d="M356.16,401.43a6.5,6.5,0,0,0,.17-2.81c-.29-1.39-1.1-2-2-1.79-1.12.23-1.41,1.46-1.17,2.65l.23,1.09-1.93.39-.21-1c-.2-.9-.77-2-1.74-1.78-.68.14-1.08.81-.85,1.94a5.37,5.37,0,0,0,1.17,2.26l-1.83.94a7.35,7.35,0,0,1-1.58-3.37c-.5-2.45.51-4.07,2.08-4.39a2.8,2.8,0,0,1,3.09,1.56h0a2.89,2.89,0,0,1,2.28-3.05c2-.42,3.87,1.06,4.46,4a6.88,6.88,0,0,1-.12,3.57Z" transform="translate(-237.66 -360.62)"/>
    <path class="cls" d="M344.69,387a10.61,10.61,0,0,0,.41,1c1,2.2,2.59,2.77,4,2.58l0,0a3.3,3.3,0,0,1-1.75-2,3.55,3.55,0,0,1,2.29-4.73,4.18,4.18,0,0,1,5.48,2.55c1.11,2.91-.53,5.16-3.14,6.15a6.49,6.49,0,0,1-8.81-3.72,8.54,8.54,0,0,1-.41-1Zm6-.68a1.77,1.77,0,0,0,.28,3.49,1.45,1.45,0,0,0,.68-.14c1.15-.49,2-1.44,1.54-2.6C352.87,386.13,351.83,385.87,350.71,386.29Z" transform="translate(-237.66 -360.62)"/>
    <path class="cls" d="M342.93,375.64c3.13-1.8,6-1.77,7.5.82s-.19,5.13-3.05,6.79-6,1.77-7.49-.85S340.15,377.23,342.93,375.64Zm3.08,5.22c2.33-1.32,3.12-2.51,2.59-3.43s-2-.76-4.28.56-3.16,2.46-2.61,3.41S343.66,382.23,346,380.86Z" transform="translate(-237.66 -360.62)"/>
  </g>
</svg>
