<svg id="Layer_1" data-name="Layer 1" xmlns="http://www.w3.org/2000/svg" viewBox="0 0 144.25 141.45">
  <defs>
    <style>
      .cls-2 {
        fill: #39c0c4;
      }

      .cls-1, .cls-3 {
        fill: #ffffff;
        opacity: .8;
      }

      g.icon-drag {
        opacity: .4;
        -webkit-animation: move .7s ease infinite;
        -moz-animation: move .7s ease infinite;
        -o-animation: move .7s ease infinite;
        animation: move .7s ease infinite;
      }

      @-webkit-keyframes move {
        0%{
            opacity:1;
        }
        50%{
            opacity:.4;
        }
        100%{
            opacity:1;
        }
      }
    </style>
  </defs>
  <title>drag360</title>
    <g class="icon-drag">
      <path class="cls-2" d="M266.19,442.22l.17.14,18.14,15.35.17.14,6.22-7.35-18.48-15.63Z" transform="translate(-225.29 -350.42)"/>
      <path class="cls-2" d="M296.83,368.62a50.51,50.51,0,1,0,50.5,50.51A50.5,50.5,0,0,0,296.83,368.62Zm9.93,16,13.8-2.37-.05,14-3.44-2.92-4.36,5.16-6.87-5.81,4.36-5.15Zm-12.76.47-2.91,3.44,5.15,4.36-5.8,6.87-5.16-4.36-2.91,3.44L280,385.06Zm14.68,53.79-13.83,12.67-7.51,8.88a3.36,3.36,0,0,1-2.28,1.31,2.62,2.62,0,0,1-.56,0,4.54,4.54,0,0,1-2.41-1.21L264,445.21a4.61,4.61,0,0,1-1.59-2.17,3.22,3.22,0,0,1,.82-3l7-8.27c-.71-3.36-3.16-14.95-3.54-17.36a9.08,9.08,0,0,1,2.25-8c2.77-3.26,8.14-3.06,10.92-.71,2.52,2.14,3.61,5.37,4.64,8.51l11.8-13.95A8.64,8.64,0,0,1,301.4,397a6.6,6.6,0,0,1,5.39,1.68,7.12,7.12,0,0,1,2.79,4.83c.16,1.93-.64,3.95-2.38,6L303.41,414c-.11.13-.28.3-.47.49-1.37,1.38-1.83,2.14-.42,3.65,1.56,1.69,2.9,3.18,4.07,4.49s2.2,2.46,3.12,3.42a8.5,8.5,0,0,1,2.78,6.11C312.4,434.43,311.12,436.7,308.68,438.9Zm1.86-16.21,2.91-3.45-5.15-4.36,5.8-6.86,5.16,4.36,2.91-3.45,2.37,13.8Z" transform="translate(-225.29 -350.42)"/>
      <path class="cls-2" d="M303.81,425.1c-1.15-1.29-2.47-2.77-4-4.43-2.65-2.86-2.47-5.82.52-8.82a3.12,3.12,0,0,0,.26-.27l3.79-4.48a4.87,4.87,0,0,0,1.51-3.29,3.56,3.56,0,0,0-1.48-2.3,2.93,2.93,0,0,0-2.41-.85,5.27,5.27,0,0,0-2.89,2l-15.91,18.82-1.14-2.9c-.41-1-.76-2.09-1.1-3.12-.92-2.8-1.79-5.44-3.54-6.92-1.25-1-4.28-1.35-5.66.28a5.38,5.38,0,0,0-1.42,5.05c.37,2.32,2.94,14.49,3.56,17.39l19.58,16.56,12.73-11.66c1.66-1.5,2.53-2.89,2.58-4.13a5.05,5.05,0,0,0-1.75-3.4C306.06,427.61,305,426.45,303.81,425.1Z" transform="translate(-225.29 -350.42)"/>
    </g>
    <g class="icon-drag">
      <path class="cls-3" d="M266.19,442.22l.17.14,18.14,15.35.17.14,6.22-7.35-18.48-15.63Z" transform="translate(-225.29 -350.42)"/>
      <path class="cls-3" d="M296.83,368.62a50.51,50.51,0,1,0,50.5,50.51A50.5,50.5,0,0,0,296.83,368.62Zm9.93,16,13.8-2.37-.05,14-3.44-2.92-4.36,5.16-6.87-5.81,4.36-5.15Zm-12.76.47-2.91,3.44,5.15,4.36-5.8,6.87-5.16-4.36-2.91,3.44L280,385.06Zm14.68,53.79-13.83,12.67-7.51,8.88a3.36,3.36,0,0,1-2.28,1.31,2.62,2.62,0,0,1-.56,0,4.54,4.54,0,0,1-2.41-1.21L264,445.21a4.61,4.61,0,0,1-1.59-2.17,3.22,3.22,0,0,1,.82-3l7-8.27c-.71-3.36-3.16-14.95-3.54-17.36a9.08,9.08,0,0,1,2.25-8c2.77-3.26,8.14-3.06,10.92-.71,2.52,2.14,3.61,5.37,4.64,8.51l11.8-13.95A8.64,8.64,0,0,1,301.4,397a6.6,6.6,0,0,1,5.39,1.68,7.12,7.12,0,0,1,2.79,4.83c.16,1.93-.64,3.95-2.38,6L303.41,414c-.11.13-.28.3-.47.49-1.37,1.38-1.83,2.14-.42,3.65,1.56,1.69,2.9,3.18,4.07,4.49s2.2,2.46,3.12,3.42a8.5,8.5,0,0,1,2.78,6.11C312.4,434.43,311.12,436.7,308.68,438.9Zm1.86-16.21,2.91-3.45-5.15-4.36,5.8-6.86,5.16,4.36,2.91-3.45,2.37,13.8Z" transform="translate(-225.29 -350.42)"/>
      <path class="cls-3" d="M303.81,425.1c-1.15-1.29-2.47-2.77-4-4.43-2.65-2.86-2.47-5.82.52-8.82a3.12,3.12,0,0,0,.26-.27l3.79-4.48a4.87,4.87,0,0,0,1.51-3.29,3.56,3.56,0,0,0-1.48-2.3,2.93,2.93,0,0,0-2.41-.85,5.27,5.27,0,0,0-2.89,2l-15.91,18.82-1.14-2.9c-.41-1-.76-2.09-1.1-3.12-.92-2.8-1.79-5.44-3.54-6.92-1.25-1-4.28-1.35-5.66.28a5.38,5.38,0,0,0-1.42,5.05c.37,2.32,2.94,14.49,3.56,17.39l19.58,16.56,12.73-11.66c1.66-1.5,2.53-2.89,2.58-4.13a5.05,5.05,0,0,0-1.75-3.4C306.06,427.61,305,426.45,303.81,425.1Z" transform="translate(-225.29 -350.42)"/>
    </g>

    <g>
      <path class="cls-1" d="M226.88,438a10.5,10.5,0,0,1-1.41-4c-1-5.51,1.95-9,6.49-9.76,5.44-1,9.15,2.38,10,7.2a9.53,9.53,0,0,1,0,4l-3-.22a7.8,7.8,0,0,0,0-3.13c-.5-2.86-2.62-4.78-6.17-4.15-3.19.56-4.86,2.81-4.29,6a9,9,0,0,0,1,2.91Z" transform="translate(-225.29 -350.42)"/>
      <path class="cls-1" d="M243.05,436.88l1.43,3.39-12.07,5.1,2.5,5.92-2.83,1.2-3.93-9.31Z" transform="translate(-225.29 -350.42)"/>
      <path class="cls-1" d="M249.61,450.1l-13.8,8.44-1.92-3.13,13.8-8.45Z" transform="translate(-225.29 -350.42)"/>
      <path class="cls-1" d="M246.59,471.3a10.54,10.54,0,0,1-3.25-2.67c-3.68-4.22-3-8.67.52-11.7,4.16-3.63,9.06-2.69,12.28,1a9.63,9.63,0,0,1,2.08,3.48l-2.68,1.34a7.84,7.84,0,0,0-1.57-2.7c-1.91-2.19-4.71-2.74-7.42-.37-2.44,2.13-2.72,4.91-.57,7.37a8.83,8.83,0,0,0,2.4,1.95Z" transform="translate(-225.29 -350.42)"/>
      <path class="cls-1" d="M259.9,462.19l3,2.07-4.08,5.87.06,0c.65-.3,1.29-.56,1.92-.82l6.08-2.32,3.69,2.56-8.33,2.6L261.54,483,258,480.6l.74-8-2.12.61-3,4.33-3-2.07Z" transform="translate(-225.29 -350.42)"/>
      <path class="cls-1" d="M272.19,479.48l-1,2.2L265.47,479l1-2.19Z" transform="translate(-225.29 -350.42)"/>
      <path class="cls-1" d="M277.1,472.69a32.16,32.16,0,0,1,4.89.81c3,.71,4.79,1.71,6,3.21a7.17,7.17,0,0,1,1.26,6.56,8.21,8.21,0,0,1-4.13,5.75c-2,1-4.66,1-7.74.31a31.57,31.57,0,0,1-4-1.19Zm.52,13.68a7.31,7.31,0,0,0,1.23.37c3.21.78,5.73-.49,6.63-4.25.79-3.26-.71-5.45-3.77-6.17a7.28,7.28,0,0,0-1.64-.24Z" transform="translate(-225.29 -350.42)"/>
      <path class="cls-1" d="M293.12,475.92a31.9,31.9,0,0,1,4.86-.49c2.4-.07,4.09.23,5.27,1.11a4.08,4.08,0,0,1,1.6,3.33,4.29,4.29,0,0,1-2.73,4.07V484c1.14.42,1.8,1.48,2.26,3,.56,1.81,1.13,3.9,1.46,4.52l-3.74.11a20.24,20.24,0,0,1-1.25-3.73c-.49-2-1.21-2.53-2.69-2.5l-1.11,0,.2,6.36-3.62.11Zm3.85,6.84,1.44,0c1.82-.06,2.87-1,2.83-2.42s-1.08-2.2-2.76-2.17a10,10,0,0,0-1.65.17Z" transform="translate(-225.29 -350.42)"/>
      <path class="cls-1" d="M314.22,485.4l.09,4.31-3.63,1.09.07-16.91,4.59-1.39,9.47,14L321,487.68l-2.39-3.61Zm3.14-3.8-2-3c-.55-.83-1.18-1.9-1.68-2.75l-.05,0c.05,1,.17,2.22.19,3.2l.07,3.56Z" transform="translate(-225.29 -350.42)"/>
      <path class="cls-1" d="M340.83,476.37a18.29,18.29,0,0,1-4.09,3.64c-2.5,1.57-4.71,2.07-6.73,1.65a7.88,7.88,0,0,1-5.06-3.77c-2.83-4.57-1.15-9.25,3.34-12.07a11,11,0,0,1,4.22-1.71l.91,2.89a8.79,8.79,0,0,0-3.57,1.41c-2.58,1.62-3.61,4.31-1.75,7.27s4.59,3.39,7.13,1.79a5,5,0,0,0,1.4-1.16l-1.8-2.86-2.11,1.32-1.52-2.42,5.1-3.2Z" transform="translate(-225.29 -350.42)"/>
      <path class="cls-1" d="M341.84,455l2.59,2.15,1.67-2,2.07,1.71-1.67,2,3.26,2.72c1.09.9,1.81,1.05,2.51.21a7.08,7.08,0,0,0,.62-.9l2.13,1.75a6.84,6.84,0,0,1-1.27,2,3.82,3.82,0,0,1-2.52,1.47,4.85,4.85,0,0,1-3.32-1.45l-3.7-3.06-1,1.19-2.07-1.71,1-1.2-1.95-1.62Z" transform="translate(-225.29 -350.42)"/>
      <path class="cls-1" d="M358,446.32a5.89,5.89,0,0,1,2.43,8.47,5.76,5.76,0,0,1-8.25,2.34,5.86,5.86,0,0,1-2.35-8.51A5.71,5.71,0,0,1,358,446.32Zm-4.06,7.47c1.76,1,3.49,1,4.26-.36s-.1-2.73-1.94-3.76c-1.53-.86-3.41-1.14-4.22.3S352.4,453,353.9,453.79Z" transform="translate(-225.29 -350.42)"/>
      <path class="cls-1" d="M367.14,437.44l-16.93,1.48.89-3.91,7.11-.41c2-.11,3.91-.19,6-.12v-.07c-1.8-.83-3.56-1.75-5.24-2.69l-6.29-3.54.86-3.8,14.57,8.9Z" transform="translate(-225.29 -350.42)"/>
      <path class="cls-1" d="M353.29,419.88l16.15.73-.16,3.67-16.16-.73Z" transform="translate(-225.29 -350.42)"/>
      <path class="cls-1" d="M361.7,407.27l.64,5.92,3.82-.41-.71-6.61,3-.32,1.1,10.26-16.08,1.73-1.07-9.93,3-.32.67,6.28,3.34-.36-.64-5.92Z" transform="translate(-225.29 -350.42)"/>
      <path class="cls-1" d="M366,396.12l-13.3,10-1.56-3.59,5.63-3.78c1.61-1.09,3.39-2.23,4.78-3.13v0c-1.72.46-3.65.88-5.64,1.3l-6.62,1.38-1.55-3.56,5.73-3.9c1.6-1.09,3.08-2,4.63-3l0,0c-1.74.49-3.62.92-5.52,1.38l-6.6,1.43-1.48-3.41L361,384.55l1.58,3.63-5.83,4c-1.38.93-2.66,1.78-4.27,2.69l0,0c1.78-.46,3.3-.83,4.95-1.13l7-1.36Z" transform="translate(-225.29 -350.42)"/>
      <path class="cls-1" d="M350,374.76a8.53,8.53,0,0,0-1.83-3.27c-1.31-1.37-2.64-1.42-3.48-.61-1.11,1.07-.54,2.66.58,3.82l1,1.07-1.88,1.81-1-1c-.87-.87-2.28-1.67-3.23-.76-.68.65-.64,1.69.42,2.79a7.12,7.12,0,0,0,2.95,1.7l-1.38,2.37A9.66,9.66,0,0,1,338,380c-2.32-2.4-2.35-4.95-.81-6.43a3.73,3.73,0,0,1,4.59-.46l0,0a3.87,3.87,0,0,1,.37-5.07c2-1.91,5.12-1.57,7.87,1.28a9.26,9.26,0,0,1,2.43,4.09Z" transform="translate(-225.29 -350.42)"/>
      <path class="cls-1" d="M325.86,366.88a11.13,11.13,0,0,0,1.21.74c2.86,1.55,5,1,6.31-.34l-.06,0a4.39,4.39,0,0,1-3.46-.78,4.72,4.72,0,0,1-1.24-6.89,5.58,5.58,0,0,1,7.91-1.56c3.47,2.27,3.48,6,1.44,9.09A8.65,8.65,0,0,1,325.56,370a10.48,10.48,0,0,1-1.24-.78Zm5.95-5.45c-.78,1.21-.83,2.67.48,3.52a2.37,2.37,0,0,0,2.57,0,2.11,2.11,0,0,0,.62-.68c.84-1.42,1-3.1-.39-4C334,359.57,332.68,360.11,331.81,361.43Z" transform="translate(-225.29 -350.42)"/>
      <path class="cls-1" d="M313.86,356.37c1.69-4.52,4.66-6.94,8.39-5.56s4.19,5.42,2.67,9.57-4.62,6.91-8.4,5.51S312.38,360.38,313.86,356.37Zm7.62,2.73c1.27-3.34,1-5.24-.28-5.73s-2.66.9-3.9,4.23-1.14,5.21.23,5.72S320.24,362.51,321.48,359.1Z" transform="translate(-225.29 -350.42)"/>
    </g>
</svg>
