<svg id="Layer_1" data-name="Layer 1" xmlns="http://www.w3.org/2000/svg" viewBox="0 0 60.61 60.61">
  <defs>
    <style>
      .cls-1 {
        fill: #fff;
      }

      .cls-2 {
        fill: #808285;
      }
    </style>
  </defs>
  <title>guaranteed-rev</title>
  <g>
    <path class="cls-1" d="M324.61,408.07l3.26-3.56L324.61,401l2.23-4.28-4.08-2.6,1.05-4.71-4.61-1.45-.21-4.83-4.82-.21-1.45-4.6-4.72,1-2.59-4.07-4.29,2.23-3.56-3.26L294,377.47l-4.28-2.23-2.59,4.07-4.72-1-1.45,4.6-4.82.21-.21,4.83-4.61,1.45,1.05,4.71-4.08,2.6,2.23,4.28-3.26,3.56,3.26,3.56-2.23,4.29,4.08,2.59-1.05,4.72,4.61,1.45.21,4.82,4.82.21,1.45,4.61,4.72-1.05,2.59,4.08,4.28-2.24,3.56,3.27,3.56-3.27,4.29,2.24,2.59-4.08,4.72,1.05,1.45-4.61,4.82-.21.21-4.82,4.61-1.45L322.76,415l4.08-2.59Zm-32.83,6.73h-6.26V402.1h6.26Zm17.61-9.66c0,1.07-.26,1.88-1.47,2.15.74.67.8.67.8,1.54s-.2,1.14-1.07,1.68c.74.46.74.67.74,1.34s-.47,1.81-2.48,1.81H294.17c-.67,0-1.14-.11-1.14-.83v-12l5.37-6.91v-3.15c0-1,4.15-1.61,4.15,2.15s-.4,5.43-1.2,6.3h6.5c.94,0,1.61,1.14,1.61,2.21s-.27,1.81-1.27,2.15C309.06,403.93,309.39,404.07,309.39,405.14Z" transform="translate(-267.26 -374.21)"/>
    <g>
      <path class="cls-2" d="M280,412.52c.52-.2.93-.47.68-1.08s-1.26-.31-2.33.12c-1.72.71-2,1-1.69,1.66a1.88,1.88,0,0,0,.35.53l1.21-.5-.25-.63.84-.35.73,1.78-2.78,1.15a10.42,10.42,0,0,1-.83-1.48c-.79-1.94-.08-2.49,2-3.35,1.39-.57,2.83-1.08,3.6.8a1.7,1.7,0,0,1-1.06,2.5Z" transform="translate(-267.26 -374.21)"/>
      <path class="cls-2" d="M285.19,417l-3.3,2.64a1.77,1.77,0,0,1-2.69-.44,1.75,1.75,0,0,1,.16-2.72l3.3-2.64.77,1-3.22,2.59c-.58.46-.61.88-.32,1.24s.77.39,1.29,0l3.23-2.59Z" transform="translate(-267.26 -374.21)"/>
      <path class="cls-2" d="M282.11,422.27l4.77-3.92,1.35.94-2.1,5.8-1.07-.75.49-1.27-1.4-1-1,.89Zm4.73-2.56h0l-1.95,1.77,1,.69Z" transform="translate(-267.26 -374.21)"/>
      <path class="cls-2" d="M289.2,426.39,288,426l2-5.62,2.17.78a1.35,1.35,0,0,1,.79,1.94,1.28,1.28,0,0,1-1.53,1v0a1.06,1.06,0,0,1,.62,1.47,8.2,8.2,0,0,0-.45,1.69l-1.15-.41a2.63,2.63,0,0,1,.26-1.13c.24-.67.5-1.22-.4-1.54l-.3-.11Zm1.13-3.19.52.19c.47.16.77-.26.9-.62.19-.53,0-.81-.34-.95l-.52-.18Z" transform="translate(-267.26 -374.21)"/>
      <path class="cls-2" d="M293.47,427.7l2.06-5.84,1.64.12,1.2,6.06-1.31-.09-.24-1.34-1.7-.12-.42,1.29Zm2.73-4.64h0l-.75,2.53,1.19.08Z" transform="translate(-267.26 -374.21)"/>
      <path class="cls-2" d="M300.68,427.82l-1.34-5.8,1.64-.37,2.47,3.66h0l-.93-4,1.13-.26,1.34,5.8-1.6.36-2.56-3.87h0l1,4.24Z" transform="translate(-267.26 -374.21)"/>
      <path class="cls-2" d="M307.69,418.88l.47.87-1.22.66,2.39,4.35-1.09.6L305.85,421l-1.21.66-.48-.86Z" transform="translate(-267.26 -374.21)"/>
      <path class="cls-2" d="M311.89,423.09,308,418.63l2.44-2.14.6.68-1.5,1.33,1,1.1,1.39-1.22.6.68-1.39,1.22,1.15,1.31,1.56-1.37.6.69Z" transform="translate(-267.26 -374.21)"/>
      <path class="cls-2" d="M315.62,419.49,310.8,416l1.9-2.63.74.53-1.17,1.63,1.19.86,1.08-1.5.74.54-1.08,1.49,1.41,1,1.21-1.67.74.53Z" transform="translate(-267.26 -374.21)"/>
      <path class="cls-2" d="M313.1,412.71l.76-1.94c.59-1.53,1.72-1.41,3.45-.74.85.33,2.86,1,2.08,3l-.74,1.89Zm5.15.67.22-.56c.28-.71-.2-1.06-1.59-1.6-1-.4-1.92-.75-2.24.06l-.23.6Z" transform="translate(-267.26 -374.21)"/>
    </g>
    <g>
      <path class="cls-2" d="M275.39,402l1.38,1.81,2.15-.76-1.3,1.87,1.38,1.81-2.18-.65-1.3,1.86,0-2.27-2.18-.65,2.14-.75Z" transform="translate(-267.26 -374.21)"/>
      <path class="cls-2" d="M279.38,400l-4.81-1.5.78-2.5.74.23-.47,1.5,1.24.38.44-1.42.74.23-.44,1.42,2.09.66Z" transform="translate(-267.26 -374.21)"/>
      <path class="cls-2" d="M277.67,391.44l3.12,1.75a1.5,1.5,0,0,1,.51,2.25,1.48,1.48,0,0,1-2.19.74L276,394.43l.51-.92,3.06,1.72c.54.3.88.19,1.07-.15s.06-.73-.43-1l-3.06-1.71Z" transform="translate(-267.26 -374.21)"/>
      <path class="cls-2" d="M282.59,393.15l-3.68-3.44,1-1,3.46,1.4h0l-2.55-2.38.67-.72,3.69,3.44-1,1-3.63-1.51h0l2.69,2.52Z" transform="translate(-267.26 -374.21)"/>
      <path class="cls-2" d="M286,387l.42.58-1.39,1-.42-.58Z" transform="translate(-267.26 -374.21)"/>
      <path class="cls-2" d="M288,388.37l-2.29-4.48,2.32-1.19.35.69-1.39.71.59,1.15,1.33-.68.35.69-1.32.68,1,1.95Z" transform="translate(-267.26 -374.21)"/>
      <path class="cls-2" d="M291.06,387l-1.62-4.77,1-.34,1.62,4.77Z" transform="translate(-267.26 -374.21)"/>
      <path class="cls-2" d="M293.11,386.31l-.91-5,1-.19.76,4.13,1.55-.28.15.82Z" transform="translate(-267.26 -374.21)"/>
      <path class="cls-2" d="M296.28,385.83l-.08-5,1.05,0,.07,4.2,1.58,0v.84Z" transform="translate(-267.26 -374.21)"/>
      <path class="cls-2" d="M299.53,385.87l.88-5,2.7.48-.13.76-1.67-.29-.21,1.22,1.53.27-.13.76-1.54-.27-.26,1.45,1.73.3-.14.77Z" transform="translate(-267.26 -374.21)"/>
      <path class="cls-2" d="M305,381.9l1.62.66c1.28.53,1.17,1.47.58,2.93-.29.71-.85,2.4-2.51,1.72l-1.59-.65Zm-.64,4.34.47.19c.6.25.9-.15,1.37-1.32.35-.86.66-1.61,0-1.89l-.5-.21Z" transform="translate(-267.26 -374.21)"/>
      <path class="cls-2" d="M314.12,387.43l-.54.64-.89-.76-2.7,3.22-.81-.68,2.7-3.21-.89-.76.54-.64Z" transform="translate(-267.26 -374.21)"/>
      <path class="cls-2" d="M311.93,392.53l-.65-.82,4-3.12,1.21,1.52a1.14,1.14,0,0,1-.31,1.74,1.08,1.08,0,0,1-1.54,0h0a.89.89,0,0,1-.2,1.34,6,6,0,0,0-1.09,1l-.64-.81a2.34,2.34,0,0,1,.7-.7c.47-.37.9-.64.4-1.28l-.17-.21Zm2.25-1.77.29.37c.26.33.66.16.91,0s.39-.57.19-.83l-.29-.37Z" transform="translate(-267.26 -374.21)"/>
      <path class="cls-2" d="M313.67,395l4.4-2.44.51.92-4.4,2.44Z" transform="translate(-267.26 -374.21)"/>
      <path class="cls-2" d="M319.43,395.15l.64,1.79c.32.91-.1,1.46-1,1.76a1.29,1.29,0,0,1-1.86-.82l-.27-.74-1.93.69-.35-1Zm-1.73,1.73.2.56a.63.63,0,0,0,.81.27c.39-.14.68-.36.52-.81l-.17-.5Z" transform="translate(-267.26 -374.21)"/>
      <path class="cls-2" d="M319.62,407.6l-1.3-1.86-2.18.67,1.37-1.81-1.31-1.87,2.16.74,1.36-1.81,0,2.27,2.15.74-2.17.66Z" transform="translate(-267.26 -374.21)"/>
    </g>
  </g>
</svg>
