<svg id="Layer_1" data-name="Layer 1" xmlns="http://www.w3.org/2000/svg" viewBox="0 0 62.41 62.41">
  <defs>
    <style>
      .cls-1 {
        fill: none;
        stroke: #f78e1e;
        stroke-linecap: round;
        stroke-linejoin: round;
        stroke-width: 1.8px;
      }

      .cls-2 {
        fill: #f78e1e;
      }

      .cls-3 {
        fill: #808285;
      }
    </style>
  </defs>
  <title>guaranteed</title>
  <g>
    <polygon class="cls-1" points="31.2 0.9 34.77 4.16 39.05 1.93 41.64 6.01 46.36 4.96 47.81 9.57 52.63 9.78 52.84 14.6 57.45 16.05 56.4 20.77 60.48 23.36 58.25 27.64 61.51 31.2 58.25 34.77 60.48 39.05 56.4 41.64 57.45 46.36 52.84 47.81 52.63 52.63 47.81 52.84 46.36 57.45 41.64 56.4 39.05 60.48 34.77 58.25 31.2 61.51 27.64 58.25 23.36 60.48 20.77 56.4 16.05 57.45 14.6 52.84 9.78 52.63 9.57 47.81 4.96 46.36 6.01 41.64 1.93 39.05 4.16 34.77 0.9 31.2 4.16 27.64 1.93 23.36 6.01 20.77 4.96 16.05 9.57 14.6 9.78 9.78 14.6 9.57 16.05 4.96 20.77 6.01 23.36 1.93 27.64 4.16 31.2 0.9"/>
    <g>
      <rect class="cls-2" x="19.16" y="28.79" width="6.26" height="12.7"/>
      <path class="cls-2" d="M293.08,428.8v-12l5.37-6.91v-3.15c0-1,4.16-1.61,4.16,2.15s-.41,5.43-1.21,6.3h6.5c.94,0,1.61,1.14,1.61,2.21s-.26,1.81-1.27,2.15c.87.33,1.21.47,1.21,1.54s-.27,1.88-1.48,2.15c.74.67.81.67.81,1.54s-.2,1.14-1.08,1.68c.74.47.74.67.74,1.34s-.47,1.81-2.48,1.81H294.22C293.55,429.63,293.08,429.52,293.08,428.8Z" transform="translate(-266.41 -389.28)"/>
    </g>
    <g>
      <path class="cls-3" d="M280.05,428.5c.51-.21.93-.48.68-1.09s-1.27-.31-2.33.13c-1.73.7-2,1-1.69,1.65a2.09,2.09,0,0,0,.34.53l1.22-.5-.26-.63.85-.34.73,1.77-2.79,1.15a10.45,10.45,0,0,1-.82-1.48c-.8-1.94-.09-2.49,2-3.35,1.38-.57,2.82-1.08,3.6.8a1.71,1.71,0,0,1-1.06,2.5Z" transform="translate(-266.41 -389.28)"/>
      <path class="cls-3" d="M285.24,433,282,435.6a1.78,1.78,0,0,1-2.69-.43,1.74,1.74,0,0,1,.16-2.73l3.29-2.64.78,1-3.23,2.58c-.57.46-.6.88-.32,1.24s.78.39,1.29,0l3.23-2.59Z" transform="translate(-266.41 -389.28)"/>
      <path class="cls-3" d="M282.17,438.24l4.77-3.92,1.34.94-2.1,5.8-1.07-.75.49-1.27-1.39-1-1,.89Zm4.72-2.55h0l-1.94,1.78,1,.68Z" transform="translate(-266.41 -389.28)"/>
      <path class="cls-3" d="M289.25,442.36l-1.17-.42,2-5.61,2.17.77A1.36,1.36,0,0,1,293,439a1.29,1.29,0,0,1-1.53,1v0a1.06,1.06,0,0,1,.63,1.47,7.82,7.82,0,0,0-.46,1.69l-1.15-.41a2.82,2.82,0,0,1,.26-1.13c.24-.67.51-1.21-.4-1.54l-.3-.1Zm1.14-3.19.52.19c.47.16.76-.26.89-.61.19-.54,0-.82-.34-1l-.52-.18Z" transform="translate(-266.41 -389.28)"/>
      <path class="cls-3" d="M293.52,443.67l2.06-5.84,1.64.12,1.2,6.06-1.31-.09-.23-1.34-1.7-.12-.43,1.29Zm2.73-4.64h0l-.75,2.53,1.18.08Z" transform="translate(-266.41 -389.28)"/>
      <path class="cls-3" d="M300.73,443.8l-1.34-5.8,1.64-.38,2.47,3.66h0l-.93-4,1.13-.26,1.34,5.8-1.6.37-2.56-3.88h0l1,4.24Z" transform="translate(-266.41 -389.28)"/>
      <path class="cls-3" d="M307.74,434.85l.47.87-1.21.66,2.38,4.36-1.09.59L305.91,437l-1.22.67-.47-.87Z" transform="translate(-266.41 -389.28)"/>
      <path class="cls-3" d="M311.94,439.07,308,434.61l2.43-2.15.61.68-1.51,1.33,1,1.1,1.39-1.22.6.68-1.38,1.22,1.15,1.31,1.55-1.37.6.69Z" transform="translate(-266.41 -389.28)"/>
      <path class="cls-3" d="M315.68,435.46,310.85,432l1.9-2.63.75.54-1.18,1.62,1.19.86,1.08-1.5.75.54-1.09,1.49,1.41,1,1.22-1.67.74.53Z" transform="translate(-266.41 -389.28)"/>
      <path class="cls-3" d="M313.16,428.68l.75-1.94c.59-1.52,1.72-1.41,3.45-.74.85.34,2.86,1,2.09,2.95l-.74,1.89Zm5.15.67.22-.56c.27-.71-.2-1.06-1.6-1.6-1-.4-1.92-.75-2.23.06l-.24.6Z" transform="translate(-266.41 -389.28)"/>
    </g>
    <g>
      <path class="cls-3" d="M275.45,418l1.37,1.81,2.15-.76-1.29,1.87,1.37,1.82-2.18-.66L275.58,424l-.05-2.26-2.17-.66,2.14-.75Z" transform="translate(-266.41 -389.28)"/>
      <path class="cls-3" d="M279.43,415.94l-4.81-1.5.79-2.5.73.23-.46,1.5,1.23.38.45-1.42.73.23-.44,1.42,2.1.66Z" transform="translate(-266.41 -389.28)"/>
      <path class="cls-3" d="M277.72,407.41l3.12,1.75a1.5,1.5,0,0,1,.52,2.25,1.48,1.48,0,0,1-2.19.74l-3.12-1.75.51-.92,3.06,1.72c.54.3.88.19,1.07-.15s.06-.73-.43-1l-3.05-1.72Z" transform="translate(-266.41 -389.28)"/>
      <path class="cls-3" d="M282.64,409.12,279,405.68l1-1,3.47,1.4h0l-2.56-2.38.68-.72,3.68,3.44-.95,1-3.63-1.5h0l2.7,2.51Z" transform="translate(-266.41 -389.28)"/>
      <path class="cls-3" d="M286,403l.42.58-1.39,1-.41-.57Z" transform="translate(-266.41 -389.28)"/>
      <path class="cls-3" d="M288.1,404.34l-2.3-4.48,2.32-1.19.36.69-1.39.71.59,1.15,1.32-.68.36.69-1.33.68,1,1.95Z" transform="translate(-266.41 -389.28)"/>
      <path class="cls-3" d="M291.12,402.93l-1.62-4.77,1-.34,1.61,4.78Z" transform="translate(-266.41 -389.28)"/>
      <path class="cls-3" d="M293.17,402.28l-.91-5,1-.19.76,4.14,1.55-.29.15.83Z" transform="translate(-266.41 -389.28)"/>
      <path class="cls-3" d="M296.34,401.8l-.09-5,1.06,0,.07,4.21,1.57,0,0,.84Z" transform="translate(-266.41 -389.28)"/>
      <path class="cls-3" d="M299.59,401.84l.87-5,2.71.48-.14.76-1.67-.29-.21,1.22,1.54.27-.14.76-1.54-.27-.25,1.45,1.72.3-.13.77Z" transform="translate(-266.41 -389.28)"/>
      <path class="cls-3" d="M305,397.87l1.63.67c1.28.52,1.17,1.47.58,2.92-.3.71-.86,2.4-2.52,1.72l-1.59-.65Zm-.63,4.34.47.2c.59.24.89-.16,1.37-1.33.35-.86.65-1.61,0-1.89l-.51-.2Z" transform="translate(-266.41 -389.28)"/>
      <path class="cls-3" d="M314.18,403.4l-.54.64-.9-.75L310,406.5l-.8-.68,2.7-3.21-.9-.76.54-.63Z" transform="translate(-266.41 -389.28)"/>
      <path class="cls-3" d="M312,408.51l-.66-.83,3.95-3.12,1.21,1.52a1.14,1.14,0,0,1-.3,1.74,1.09,1.09,0,0,1-1.55,0h0a.89.89,0,0,1-.21,1.33,7.18,7.18,0,0,0-1.09,1l-.64-.81a2.46,2.46,0,0,1,.7-.7c.47-.37.9-.64.4-1.27l-.17-.22Zm2.24-1.78.29.37c.26.33.66.16.91,0s.4-.57.19-.83l-.29-.37Z" transform="translate(-266.41 -389.28)"/>
      <path class="cls-3" d="M313.73,411l4.39-2.45.51.92-4.39,2.45Z" transform="translate(-266.41 -389.28)"/>
      <path class="cls-3" d="M319.49,411.12l.63,1.79c.32.91-.1,1.46-1,1.77a1.3,1.3,0,0,1-1.86-.83l-.26-.74-1.93.69-.36-1Zm-1.73,1.74.19.55a.64.64,0,0,0,.82.27c.38-.14.68-.36.52-.81l-.18-.5Z" transform="translate(-266.41 -389.28)"/>
      <path class="cls-3" d="M319.68,423.57l-1.31-1.86-2.18.68,1.37-1.82-1.31-1.87,2.16.74,1.36-1.81,0,2.27,2.14.74-2.17.66Z" transform="translate(-266.41 -389.28)"/>
    </g>
  </g>
</svg>
