<svg id="Layer_1" data-name="Layer 1" xmlns="http://www.w3.org/2000/svg" viewBox="0 0 61.26 61.11">
  <defs>
    <style>
      .cls-1 {
        fill: none;
        stroke: #fff;
        stroke-linejoin: round;
      }

      .cls-2 {
        fill: #fff;
      }
    </style>
  </defs>
  <title>maxadventure-rev</title>
  <g>
    <g>
      <path class="cls-1" d="M324.65,451c2.15,0,3.19-.43,3.19-2.47V421.05a30.13,30.13,0,0,0-60.26,0v27.51c0,2,1.05,2.47,3.19,2.47Z" transform="translate(-267.08 -390.42)"/>
      <g>
        <path class="cls-2" d="M297.71,397.11a23.5,23.5,0,0,1,6.23.84l-2.85,8.26a15.5,15.5,0,0,0-3.38-.38,15,15,0,0,0-3,.3l-2.63-8.33a23.39,23.39,0,0,1,5.6-.69m0-1a24.68,24.68,0,0,0-6.86,1l3.21,10.22a14.16,14.16,0,0,1,3.65-.49,14.41,14.41,0,0,1,4,.58l3.49-10.12a24.59,24.59,0,0,0-7.51-1.18Z" transform="translate(-267.08 -390.42)"/>
        <path class="cls-2" d="M307,399.05a24.1,24.1,0,0,1,9.38,7.17l-7.17,4.92a15.2,15.2,0,0,0-5.05-3.85l2.84-8.24m-.6-1.32L303,407.84a14.19,14.19,0,0,1,6.1,4.65l8.79-6a25.17,25.17,0,0,0-11.41-8.72Z" transform="translate(-267.08 -390.42)"/>
        <path class="cls-2" d="M277.47,408.36l7,5.12a15.19,15.19,0,0,0-2,6.57h-8.73a23.54,23.54,0,0,1,3.68-11.69m-.26-1.43a24.76,24.76,0,0,0-4.45,14.12h10.72a14.14,14.14,0,0,1,2.36-7.84l-8.63-6.28Z" transform="translate(-267.08 -390.42)"/>
        <path class="cls-2" d="M318.29,408.91a23.78,23.78,0,0,1,3.34,11.14H312.9a15.19,15.19,0,0,0-1.79-6.2l7.18-4.94m.29-1.41-8.8,6.05a14.19,14.19,0,0,1,2.15,7.5h10.72a24.69,24.69,0,0,0-4.07-13.55Z" transform="translate(-267.08 -390.42)"/>
        <path class="cls-2" d="M289,398.8l2.61,8.32a15.3,15.3,0,0,0-5.16,3.7l-7-5.11A24.15,24.15,0,0,1,289,398.8m.63-1.3A25.15,25.15,0,0,0,278,405.9l8.62,6.28a14.17,14.17,0,0,1,6.23-4.48l-3.21-10.2Z" transform="translate(-267.08 -390.42)"/>
      </g>
      <g>
        <path class="cls-2" d="M295.14,441.34a.13.13,0,0,1,0,.1.24.24,0,0,1-.11.08l-.23.05h-.71l-.22-.05a.36.36,0,0,1-.12-.08.17.17,0,0,1,0-.1v-6.17h0l-2.2,6.16a.35.35,0,0,1-.08.13.37.37,0,0,1-.14.08.75.75,0,0,1-.23,0h-.68a1,1,0,0,1-.23-.05.53.53,0,0,1-.15-.08.26.26,0,0,1-.07-.11l-2.12-6.16h0v6.17a.17.17,0,0,1,0,.1.28.28,0,0,1-.12.08l-.23.05h-.7l-.23-.05a.23.23,0,0,1-.12-.08.17.17,0,0,1,0-.1v-6.76a.61.61,0,0,1,.16-.46.57.57,0,0,1,.42-.15h1a2.07,2.07,0,0,1,.46,0,.84.84,0,0,1,.33.15.64.64,0,0,1,.24.27,1.59,1.59,0,0,1,.16.41l1.64,4.52h0l1.7-4.51a2.85,2.85,0,0,1,.16-.42,1,1,0,0,1,.21-.27.8.8,0,0,1,.29-.15,1.43,1.43,0,0,1,.38,0h1a.77.77,0,0,1,.27,0,.35.35,0,0,1,.19.12.5.5,0,0,1,.11.19,1,1,0,0,1,0,.26Z" transform="translate(-267.08 -390.42)"/>
        <path class="cls-2" d="M303,441a1.74,1.74,0,0,1,.09.34.21.21,0,0,1,0,.18.38.38,0,0,1-.23.08h-.92a.81.81,0,0,1-.25,0,.22.22,0,0,1-.12-.07.31.31,0,0,1-.06-.13l-.51-1.52H298.1l-.48,1.48a1,1,0,0,1-.06.14.27.27,0,0,1-.12.09,1.19,1.19,0,0,1-.24,0h-.83a.34.34,0,0,1-.21-.09.23.23,0,0,1-.05-.19l.09-.33,2.34-6.72a.67.67,0,0,1,.08-.17.27.27,0,0,1,.15-.09,1.55,1.55,0,0,1,.29,0h1a2.13,2.13,0,0,1,.32,0,.26.26,0,0,1,.16.1.87.87,0,0,1,.09.17Zm-3.48-5.56h0l-1.07,3.23h2.15Z" transform="translate(-267.08 -390.42)"/>
        <path class="cls-2" d="M309.94,441a1.39,1.39,0,0,1,.14.33.16.16,0,0,1,0,.18.42.42,0,0,1-.25.09h-1a1.31,1.31,0,0,1-.25,0,.23.23,0,0,1-.13-.07.35.35,0,0,1-.07-.12L307,438.61l-1.42,2.73a.62.62,0,0,1-.08.12.23.23,0,0,1-.13.07,1.18,1.18,0,0,1-.25,0h-.9a.35.35,0,0,1-.22-.09.18.18,0,0,1,0-.18,1.5,1.5,0,0,1,.15-.33l1.82-3.31-1.69-3.11a3.64,3.64,0,0,1-.15-.34.19.19,0,0,1,0-.19.39.39,0,0,1,.25-.07l.52,0h.44a1.31,1.31,0,0,1,.25,0,.26.26,0,0,1,.13.07l.08.12,1.33,2.51,1.29-2.51a1.27,1.27,0,0,1,.07-.12.32.32,0,0,1,.13-.07,1,1,0,0,1,.23,0h.41l.47,0a.33.33,0,0,1,.23.07.18.18,0,0,1,0,.19,1.71,1.71,0,0,1-.13.34l-1.69,3.09Z" transform="translate(-267.08 -390.42)"/>
      </g>
    </g>
    <path class="cls-2" d="M296.62,418.15a3.23,3.23,0,1,0,1.94,6.17l18-9Zm1.8,4.94a2,2,0,1,1,1.34-2.57A2,2,0,0,1,298.42,423.09Z" transform="translate(-267.08 -390.42)"/>
  </g>
</svg>
