<svg id="Layer_1" data-name="Layer 1" xmlns="http://www.w3.org/2000/svg" viewBox="0 0 61.26 61.27">
  <defs>
    <style>
      .cls-1 {
        fill: #fff;
      }

      .cls-2 {
        fill: none;
        stroke: #fff;
        stroke-miterlimit: 10;
      }
    </style>
  </defs>
  <title>worryfree-rev</title>
  <g>
    <polygon class="cls-1" points="21.4 29.17 24.77 25.66 30.54 31.37 50.54 13.29 51.23 13.91 30.68 38.17 21.4 29.17"/>
    <g>
      <path class="cls-1" d="M278,415.49a3.67,3.67,0,0,0,.71,1.24l-.17,1.09-5.69-.88.19-1.23,4.38.68a6.33,6.33,0,0,1-.49-1.06Z" transform="translate(-267.23 -389.42)"/>
      <path class="cls-1" d="M275.72,423.05c-1.8.11-3,.06-3.07-1.49s1.06-1.73,2.87-1.84c2.2-.14,3,.06,3,1.48S277.92,422.91,275.72,423.05Zm-.15-2.17c-1.74.11-2.1.17-2.08.63s.41.48,2.14.37,2.11-.13,2.08-.63S277.34,420.77,275.57,420.88Z" transform="translate(-267.23 -389.42)"/>
      <path class="cls-1" d="M276.87,427.73c-1.73.49-2.89.7-3.31-.79s.67-1.92,2.41-2.42c2.12-.59,2.89-.56,3.28.81S279,427.13,276.87,427.73Zm-.6-2.08c-1.68.47-2,.61-1.9,1.06s.5.38,2.17-.09,2-.58,1.9-1.06S278,425.17,276.27,425.65Z" transform="translate(-267.23 -389.42)"/>
      <path class="cls-1" d="M276.12,433.11l-.33-.51,6.37-1.28.34.51Zm2.2.35c.72-.47,1.42-.7,2,.14s.06,1.38-.66,1.85-1.38.59-1.89-.19S277.51,434,278.32,433.46Zm.36-4.43c.72-.47,1.41-.69,1.95.14s.07,1.38-.65,1.85-1.39.59-1.9-.18S277.86,429.56,278.68,429Zm.59,5.71c.24-.16.69-.43.46-.78s-.66,0-.9.1c-.57.38-.75.54-.55.85S278.7,435.12,279.27,434.74Zm.35-4.43c.25-.15.7-.43.47-.78s-.67,0-.91.11c-.57.37-.75.54-.55.84S279.05,430.69,279.62,430.31Z" transform="translate(-267.23 -389.42)"/>
      <path class="cls-1" d="M285.43,435.62l1,.57-1.23,3.75h0l2.63-3,1.2.65-1.15,3.8h0l2.47-3.07,1,.55-3.73,4.25-1.12-.62,1.18-4h0l-2.78,3.08-1.1-.6Z" transform="translate(-267.23 -389.42)"/>
      <path class="cls-1" d="M292.5,441.88c.22-1.44.44-2.82,2.32-2.52s1.66,1.67,1.44,3.11-.45,2.82-2.33,2.52S292.27,443.31,292.5,441.88Zm2.6.41c.22-1.4.23-2-.41-2.12s-.82.49-1,1.89-.23,2,.41,2.12S294.88,443.69,295.1,442.29Z" transform="translate(-267.23 -389.42)"/>
      <path class="cls-1" d="M300.07,445.11l-1.14.12-.6-5.48,2.12-.23c.78-.09,1.34.36,1.44,1.29a1.19,1.19,0,0,1-.87,1.46h0a1,1,0,0,1,1.11,1,7.6,7.6,0,0,0,.31,1.59l-1.13.12a2.34,2.34,0,0,1-.23-1.05c-.08-.65-.08-1.21-1-1.11l-.29,0Zm-.33-3.12.5-.05c.46-.05.54-.52.5-.87-.05-.53-.3-.7-.66-.66l-.51.06Z" transform="translate(-267.23 -389.42)"/>
      <path class="cls-1" d="M306.29,443.76l-1.08.41L303.26,439l2-.75a1.25,1.25,0,0,1,1.72.89,1.19,1.19,0,0,1-.48,1.63h0a1,1,0,0,1,1.31.66,8.06,8.06,0,0,0,.7,1.47l-1.06.4a2.57,2.57,0,0,1-.49-1c-.23-.61-.37-1.15-1.2-.84l-.28.11Zm-1.11-2.93.48-.18c.43-.16.39-.64.26-1-.19-.5-.46-.6-.8-.47l-.48.18Z" transform="translate(-267.23 -389.42)"/>
      <path class="cls-1" d="M310.64,439.47l-3.25-2.13,1-.72,2,1.44-.62-2.42,1-.67.8,3.84,1.09,1.57-.95.66Z" transform="translate(-267.23 -389.42)"/>
      <path class="cls-1" d="M316.27,433.37l.61.49-1.16,1.47-.61-.49Z" transform="translate(-267.23 -389.42)"/>
      <path class="cls-1" d="M320.57,431l-5.09-2.15,1.11-2.65.78.33-.66,1.58,1.3.55.64-1.51.78.34-.63,1.5,2.22.94Z" transform="translate(-267.23 -389.42)"/>
      <path class="cls-1" d="M322.57,424.86l-.2,1.14-5.43-.94.36-2.1a1.25,1.25,0,0,1,1.64-1c.7.12,1.17.48,1.16,1.24h0a1,1,0,0,1,1.24-.8,7.29,7.29,0,0,0,1.62.15l-.2,1.12a2.59,2.59,0,0,1-1.07-.07c-.65-.11-1.19-.26-1.34.61l-.05.29Zm-3.09-.53.09-.51c.08-.45-.35-.65-.7-.71-.52-.09-.75.09-.81.45l-.09.51Z" transform="translate(-267.23 -389.42)"/>
      <path class="cls-1" d="M323.07,419.8l-5.5.36-.2-3,.85-.06.12,1.86,1.35-.09-.11-1.71.85-.06.11,1.71,1.61-.11-.13-1.91.85-.05Z" transform="translate(-267.23 -389.42)"/>
      <path class="cls-1" d="M322.38,414.13l-5.29,1.59-.87-2.89.82-.24.53,1.78,1.3-.39-.49-1.64.82-.25.49,1.64,1.54-.46-.55-1.84.81-.24Z" transform="translate(-267.23 -389.42)"/>
    </g>
    <g>
      <path class="cls-1" d="M279.41,404.68l.17,2.44,2.37.6-2.27.9.17,2.45-1.57-1.88-2.27.9,1.3-2.06-1.56-1.88,2.37.6Z" transform="translate(-267.23 -389.42)"/>
      <path class="cls-1" d="M286.5,398.89l-.76,2.32,2,1.44h-2.45l-.76,2.33-.75-2.33h-2.44l2-1.42-.74-2.33,2,1.44Z" transform="translate(-267.23 -389.42)"/>
      <path class="cls-1" d="M295.23,396.18,293.66,398l1.3,2.08-2.27-.92-1.58,1.88.18-2.45-2.26-.92,2.37-.58.18-2.44,1.28,2.07Z" transform="translate(-267.23 -389.42)"/>
      <path class="cls-1" d="M304.34,396.92l-2.15,1.15.43,2.41-1.76-1.7-2.17,1.15,1.08-2.2L298,396l2.41.33,1.07-2.19.43,2.4Z" transform="translate(-267.23 -389.42)"/>
      <path class="cls-1" d="M312.52,401l-2.43.25-.51,2.4-1-2.24-2.44.25,1.83-1.63-1-2.23,2.11,1.22,1.82-1.63-.51,2.39Z" transform="translate(-267.23 -389.42)"/>
    </g>
    <circle class="cls-2" cx="30.63" cy="30.63" r="30.13"/>
    <circle class="cls-2" cx="30.63" cy="30.67" r="15.93"/>
  </g>
</svg>
