<svg id="Layer_1" data-name="Layer 1" xmlns="http://www.w3.org/2000/svg" viewBox="0 0 60.26 60.27">
  <defs>
    <style>
      .cls-1 {
        fill: #fff;
      }

      .cls-2 {
        fill: #83cedc;
      }

      .cls-3 {
        fill: #27abca;
      }

      .cls-4 {
        fill: #c0e6ea;
      }

      .cls-5 {
        fill: #1d8aaa;
      }

      .cls-6 {
        fill: #9ed8df;
      }

      .cls-7 {
        fill: #2e3233;
      }

      .cls-8 {
        fill: #3c4041;
      }

      .cls-9 {
        fill: #808285;
      }

      .cls-10 {
        fill: #babcbb;
      }
    </style>
  </defs>
  <title>maxadventure</title>
  <path class="cls-1" d="M297.72,374.71a30.13,30.13,0,1,0,30.13,30.13A30.17,30.17,0,0,0,297.72,374.71Zm-15,30.13H271.46A26,26,0,0,1,276.14,390l9.09,6.61A14.88,14.88,0,0,0,282.74,404.84ZM286,395.5,277,388.89a26.53,26.53,0,0,1,12.26-8.84l3.38,10.74A15,15,0,0,0,286,395.5Zm11.69-5.63a15.14,15.14,0,0,0-3.84.51l-3.39-10.75a25.75,25.75,0,0,1,15.14.2L302,390.48A15.12,15.12,0,0,0,297.72,389.87Zm5.51,1.06,3.67-10.64a26.59,26.59,0,0,1,12,9.18l-9.26,6.35A15,15,0,0,0,303.23,390.93Zm9.46,13.91a14.88,14.88,0,0,0-2.27-7.9l9.27-6.37A26,26,0,0,1,324,404.84Z" transform="translate(-267.58 -374.71)"/>
  <g>
    <path class="cls-2" d="M293.88,390.38a14.85,14.85,0,0,1,8.07.1l3.68-10.65a25.75,25.75,0,0,0-15.14-.2Z" transform="translate(-267.58 -374.71)"/>
    <path class="cls-3" d="M303.23,390.93a15,15,0,0,1,6.42,4.89l9.26-6.35a26.59,26.59,0,0,0-12-9.18Z" transform="translate(-267.58 -374.71)"/>
    <path class="cls-4" d="M276.14,390a26,26,0,0,0-4.68,14.86h11.28a14.88,14.88,0,0,1,2.49-8.25Z" transform="translate(-267.58 -374.71)"/>
    <path class="cls-5" d="M310.42,396.94a14.88,14.88,0,0,1,2.27,7.9H324a26,26,0,0,0-4.28-14.27Z" transform="translate(-267.58 -374.71)"/>
    <path class="cls-6" d="M286,395.5a15,15,0,0,1,6.56-4.71l-3.38-10.74A26.53,26.53,0,0,0,277,388.89Z" transform="translate(-267.58 -374.71)"/>
    <g>
      <path class="cls-7" d="M298.49,407.82a2.94,2.94,0,0,1-3.69-1.92l23.45-7.4.16.52Z" transform="translate(-267.58 -374.71)"/>
      <path class="cls-8" d="M294.8,405.9a3,3,0,0,1,1.93-3.69L318.09,398l.16.52Z" transform="translate(-267.58 -374.71)"/>
    </g>
    <g>
      <path class="cls-9" d="M295.14,421.13a.23.23,0,0,1,0,.11.22.22,0,0,1-.12.07,1,1,0,0,1-.22.05l-.36,0-.35,0a1,1,0,0,1-.23-.05.23.23,0,0,1-.11-.07.17.17,0,0,1,0-.11V415h0l-2.2,6.16a.27.27,0,0,1-.07.13.53.53,0,0,1-.15.08l-.23,0h-.34l-.34,0a.71.71,0,0,1-.23-.05.37.37,0,0,1-.14-.07.21.21,0,0,1-.07-.12L287.78,415h0v6.17a.23.23,0,0,1,0,.11.22.22,0,0,1-.12.07,1,1,0,0,1-.22.05l-.36,0-.35,0-.23-.05a.23.23,0,0,1-.11-.07.17.17,0,0,1,0-.11v-6.76a.61.61,0,0,1,.16-.45.57.57,0,0,1,.42-.16h1a2.17,2.17,0,0,1,.47,0,.91.91,0,0,1,.33.15.87.87,0,0,1,.23.27,1.74,1.74,0,0,1,.17.41l1.64,4.52h0l1.7-4.51a2.31,2.31,0,0,1,.17-.41.89.89,0,0,1,.21-.28.69.69,0,0,1,.28-.15,1.48,1.48,0,0,1,.38,0h1a.7.7,0,0,1,.27,0,.52.52,0,0,1,.19.12.45.45,0,0,1,.11.19.75.75,0,0,1,0,.26Z" transform="translate(-267.58 -374.71)"/>
      <path class="cls-9" d="M303,420.77a1.68,1.68,0,0,1,.09.33.21.21,0,0,1,0,.19.35.35,0,0,1-.22.07l-.45,0h-.47a1.3,1.3,0,0,1-.26,0,.27.27,0,0,1-.12-.07l-.06-.12-.51-1.53h-2.84l-.48,1.48a.37.37,0,0,1-.07.14.19.19,0,0,1-.12.09.75.75,0,0,1-.24,0l-.41,0-.42,0a.29.29,0,0,1-.21-.09.22.22,0,0,1,0-.19,1.68,1.68,0,0,1,.09-.33l2.33-6.72a.76.76,0,0,1,.09-.16.28.28,0,0,1,.15-.1l.28,0h1l.32,0a.35.35,0,0,1,.17.1.51.51,0,0,1,.08.18Zm-3.48-5.56h0l-1.07,3.22h2.15Z" transform="translate(-267.58 -374.71)"/>
      <path class="cls-9" d="M310,420.76a1.67,1.67,0,0,1,.13.33.18.18,0,0,1,0,.19.47.47,0,0,1-.26.08l-.51,0-.43,0a1.31,1.31,0,0,1-.25,0,.37.37,0,0,1-.14-.08l-.07-.11L307,418.4l-1.42,2.74-.07.11a.37.37,0,0,1-.14.08,1.31,1.31,0,0,1-.25,0l-.42,0-.47,0a.36.36,0,0,1-.23-.08.18.18,0,0,1,0-.19,1.85,1.85,0,0,1,.14-.33l1.82-3.31-1.69-3.11a1.63,1.63,0,0,1-.14-.34.16.16,0,0,1,0-.19.44.44,0,0,1,.25-.07l.51,0,.44,0a1.31,1.31,0,0,1,.25,0,.3.3,0,0,1,.14.08l.07.11,1.33,2.51,1.29-2.51a1,1,0,0,1,.08-.11.23.23,0,0,1,.12-.08,1.29,1.29,0,0,1,.24,0l.41,0,.46,0a.38.38,0,0,1,.24.08.18.18,0,0,1,0,.18,2.23,2.23,0,0,1-.13.34l-1.69,3.09Z" transform="translate(-267.58 -374.71)"/>
    </g>
    <path class="cls-5" d="M297.72,435a30.13,30.13,0,1,1,30.13-30.13A30.16,30.16,0,0,1,297.72,435Zm0-58.81a28.68,28.68,0,1,0,28.67,28.68A28.71,28.71,0,0,0,297.72,376.16Z" transform="translate(-267.58 -374.71)"/>
    <g>
      <path class="cls-1" d="M296,405.49a1.86,1.86,0,1,1,3.55-1.12Z" transform="translate(-267.58 -374.71)"/>
      <path class="cls-10" d="M299.58,404.37a1.86,1.86,0,1,1-3.55,1.12Z" transform="translate(-267.58 -374.71)"/>
    </g>
  </g>
</svg>
