<svg id="Layer_1" data-name="Layer 1" xmlns="http://www.w3.org/2000/svg" viewBox="0 0 60.26 60.27">
  <defs>
    <style>
      .cls-1 {
        fill: #fff;
      }

      .cls-2 {
        fill: #83cedc;
      }

      .cls-3 {
        fill: #27abca;
      }

      .cls-4 {
        fill: #c0e6ea;
      }

      .cls-5 {
        fill: #1d8aaa;
      }

      .cls-6 {
        fill: #9ed8df;
      }

      .cls-7 {
        fill: #808285;
      }
    </style>
  </defs>
  <title>maxadventure-rev</title>
  <g>
    <path class="cls-1" d="M297.71,273.92a30.13,30.13,0,1,0,30.13,30.13A30.16,30.16,0,0,0,297.71,273.92Zm-15,30.13H271.46a26,26,0,0,1,4.68-14.87l9.08,6.62A14.85,14.85,0,0,0,282.74,304.05ZM286,294.7,277,288.1a26.52,26.52,0,0,1,12.25-8.85L292.58,290A14.91,14.91,0,0,0,286,294.7Zm11.69-5.63a14.76,14.76,0,0,0-3.84.52l-3.38-10.75a25.61,25.61,0,0,1,15.13.19L302,289.69A15.25,15.25,0,0,0,297.71,289.07Zm5.52,1.07,3.66-10.64a26.47,26.47,0,0,1,12,9.17L309.65,295A15,15,0,0,0,303.23,290.14Zm9.46,13.91a14.86,14.86,0,0,0-2.28-7.9l9.27-6.37A26,26,0,0,1,324,304.05Z" transform="translate(-267.58 -273.92)"/>
    <path class="cls-2" d="M293.87,289.59a14.76,14.76,0,0,1,3.84-.52,15.25,15.25,0,0,1,4.24.62L305.62,279a25.61,25.61,0,0,0-15.13-.19Z" transform="translate(-267.58 -273.92)"/>
    <path class="cls-3" d="M303.23,290.14a15,15,0,0,1,6.42,4.89l9.25-6.36a26.47,26.47,0,0,0-12-9.17Z" transform="translate(-267.58 -273.92)"/>
    <path class="cls-4" d="M276.14,289.18a26,26,0,0,0-4.68,14.87h11.28a14.85,14.85,0,0,1,2.48-8.25Z" transform="translate(-267.58 -273.92)"/>
    <path class="cls-5" d="M310.41,296.15a14.86,14.86,0,0,1,2.28,7.9H324a26,26,0,0,0-4.29-14.27Z" transform="translate(-267.58 -273.92)"/>
    <path class="cls-6" d="M286,294.7a14.91,14.91,0,0,1,6.56-4.7l-3.38-10.75A26.52,26.52,0,0,0,277,288.1Z" transform="translate(-267.58 -273.92)"/>
    <g>
      <path class="cls-7" d="M298.48,307a2.93,2.93,0,0,1-3.68-1.92l23.45-7.4.16.52Z" transform="translate(-267.58 -273.92)"/>
      <path class="cls-7" d="M294.8,305.11a2.94,2.94,0,0,1,1.92-3.69l21.36-4.23.17.52Z" transform="translate(-267.58 -273.92)"/>
    </g>
    <g>
      <path class="cls-7" d="M295.14,320.34a.13.13,0,0,1,0,.1.24.24,0,0,1-.11.08l-.23.05h-.71l-.22-.05a.36.36,0,0,1-.12-.08.17.17,0,0,1,0-.1v-6.17h0l-2.2,6.16a.35.35,0,0,1-.08.13.37.37,0,0,1-.14.08.75.75,0,0,1-.23,0h-.68a1,1,0,0,1-.23-.05.53.53,0,0,1-.15-.08.26.26,0,0,1-.07-.11l-2.12-6.16h0v6.17a.17.17,0,0,1,0,.1.28.28,0,0,1-.12.08l-.23.05h-.7l-.23-.05a.23.23,0,0,1-.12-.08.17.17,0,0,1,0-.1v-6.76a.61.61,0,0,1,.16-.46.57.57,0,0,1,.42-.15h1a2.07,2.07,0,0,1,.46,0,.84.84,0,0,1,.33.15.64.64,0,0,1,.24.27,1.59,1.59,0,0,1,.16.41l1.64,4.52h0l1.7-4.51a2.85,2.85,0,0,1,.16-.42,1,1,0,0,1,.21-.27.8.8,0,0,1,.29-.15,1.43,1.43,0,0,1,.38,0h1a.77.77,0,0,1,.27,0,.35.35,0,0,1,.19.12.5.5,0,0,1,.11.19,1,1,0,0,1,0,.26Z" transform="translate(-267.58 -273.92)"/>
      <path class="cls-7" d="M303,320a1.74,1.74,0,0,1,.09.34.21.21,0,0,1,0,.18.38.38,0,0,1-.23.08h-.92a.81.81,0,0,1-.25,0,.22.22,0,0,1-.12-.07.31.31,0,0,1-.06-.13l-.51-1.52H298.1l-.48,1.48a1,1,0,0,1-.06.14.27.27,0,0,1-.12.09,1.19,1.19,0,0,1-.24,0h-.83a.34.34,0,0,1-.21-.09.23.23,0,0,1-.05-.19l.09-.33,2.34-6.72a.67.67,0,0,1,.08-.17.27.27,0,0,1,.15-.09,1.55,1.55,0,0,1,.29,0h1a2.13,2.13,0,0,1,.32,0,.26.26,0,0,1,.16.1.87.87,0,0,1,.09.17Zm-3.48-5.56h0l-1.07,3.23h2.15Z" transform="translate(-267.58 -273.92)"/>
      <path class="cls-7" d="M309.94,320a1.39,1.39,0,0,1,.14.33.16.16,0,0,1,0,.18.42.42,0,0,1-.25.09h-1a1.31,1.31,0,0,1-.25,0,.23.23,0,0,1-.13-.07.35.35,0,0,1-.07-.12L307,317.61l-1.42,2.73a.62.62,0,0,1-.08.12.23.23,0,0,1-.13.07,1.18,1.18,0,0,1-.25,0h-.9a.35.35,0,0,1-.22-.09.18.18,0,0,1,0-.18,1.5,1.5,0,0,1,.15-.33l1.82-3.31-1.69-3.11a3.64,3.64,0,0,1-.15-.34.19.19,0,0,1,0-.19.39.39,0,0,1,.25-.07l.52,0h.44a1.31,1.31,0,0,1,.25,0,.26.26,0,0,1,.13.07l.08.12,1.33,2.51,1.29-2.51a1.27,1.27,0,0,1,.07-.12.32.32,0,0,1,.13-.07,1,1,0,0,1,.23,0h.41l.47,0a.33.33,0,0,1,.23.07.18.18,0,0,1,0,.19,1.71,1.71,0,0,1-.13.34l-1.69,3.09Z" transform="translate(-267.58 -273.92)"/>
    </g>
    <g>
      <path class="cls-1" d="M296,304.7a1.87,1.87,0,1,1,3.56-1.12Z" transform="translate(-267.58 -273.92)"/>
      <path class="cls-1" d="M299.58,303.58A1.87,1.87,0,0,1,296,304.7Z" transform="translate(-267.58 -273.92)"/>
    </g>
  </g>
</svg>
