<svg id="Layer_1" data-name="Layer 1" xmlns="http://www.w3.org/2000/svg" viewBox="0 0 60.31 60.31">
  <defs>
    <style>
      .cls-1 {
        fill: #fff;
      }

      .cls-2 {
        fill: #808285;
      }
    </style>
  </defs>
  <title>worryfree-rev</title>
  <g>
    <path class="cls-1" d="M297.68,321.28a16.77,16.77,0,0,1,0-33.53,16.6,16.6,0,0,1,10.39,3.6,1.06,1.06,0,0,1-1.32,1.67,14.47,14.47,0,0,0-9.07-3.15,14.64,14.64,0,1,0,14.64,14.64,14.88,14.88,0,0,0-.39-3.39,1.06,1.06,0,0,1,.79-1.27,1.07,1.07,0,0,1,1.28.79,16.78,16.78,0,0,1-16.32,20.64Z" transform="translate(-267.53 -274.36)"/>
    <path class="cls-1" d="M297.68,334.67a30.16,30.16,0,1,1,19.94-52.79,1.07,1.07,0,0,1-1.41,1.6,27.94,27.94,0,1,0,5.83,7.14,1.06,1.06,0,0,1,1.84-1.06,30.17,30.17,0,0,1-26.2,45.11Z" transform="translate(-267.53 -274.36)"/>
    <polygon class="cls-1" points="17.96 28 22.42 23.36 30.07 30.91 56.55 6.98 57.46 7.8 30.25 39.93 17.96 28"/>
    <g>
      <path class="cls-2" d="M277.83,300a3.51,3.51,0,0,0,.71,1.24l-.17,1.09-5.69-.88.19-1.23,4.38.67a5.67,5.67,0,0,1-.49-1.06Z" transform="translate(-267.53 -274.36)"/>
      <path class="cls-2" d="M275.55,307.53c-1.81.11-3,.07-3.07-1.48s1.06-1.74,2.86-1.85c2.2-.13,3,.07,3,1.49S277.75,307.4,275.55,307.53Zm-.15-2.16c-1.74.1-2.11.17-2.08.63s.4.48,2.14.37,2.11-.13,2.08-.63S277.17,305.26,275.4,305.37Z" transform="translate(-267.53 -274.36)"/>
      <path class="cls-2" d="M276.7,312.22c-1.74.49-2.89.7-3.31-.8s.67-1.92,2.41-2.41c2.12-.6,2.89-.56,3.28.81S278.82,311.62,276.7,312.22Zm-.6-2.08c-1.68.47-2,.61-1.9,1.06s.49.38,2.17-.09,2-.59,1.9-1.06S277.8,309.65,276.1,310.14Z" transform="translate(-267.53 -274.36)"/>
      <path class="cls-2" d="M276,317.6l-.34-.51,6.38-1.28.33.51Zm2.2.35c.72-.47,1.41-.7,2,.14s.06,1.38-.66,1.85-1.39.59-1.89-.19S277.34,318.48,278.15,318Zm.35-4.43c.72-.47,1.41-.7,2,.14s.06,1.38-.66,1.85-1.39.59-1.89-.19S277.69,314.05,278.5,313.52Zm.6,5.71c.24-.16.69-.43.46-.79s-.66-.05-.9.11c-.58.38-.76.54-.56.85S278.52,319.6,279.1,319.23Zm.35-4.43c.24-.16.69-.43.46-.78s-.66,0-.9.1c-.57.38-.75.54-.55.85S278.88,315.18,279.45,314.8Z" transform="translate(-267.53 -274.36)"/>
      <path class="cls-2" d="M285.25,320.11l1,.57-1.24,3.75h0l2.63-3,1.19.65-1.14,3.8h0l2.47-3.07,1,.55-3.74,4.25-1.12-.62,1.19-3.95h0l-2.78,3.08-1.11-.61Z" transform="translate(-267.53 -274.36)"/>
      <path class="cls-2" d="M292.32,326.37c.23-1.44.45-2.82,2.33-2.52s1.66,1.67,1.43,3.11-.44,2.82-2.32,2.52S292.1,327.79,292.32,326.37Zm2.61.41c.22-1.4.23-2-.41-2.12s-.82.49-1,1.89-.23,2,.41,2.12S294.71,328.18,294.93,326.78Z" transform="translate(-267.53 -274.36)"/>
      <path class="cls-2" d="M299.9,329.6l-1.15.12-.59-5.48,2.12-.23c.78-.09,1.34.36,1.44,1.29a1.2,1.2,0,0,1-.87,1.46h0a1,1,0,0,1,1.11,1,7.86,7.86,0,0,0,.3,1.6l-1.12.12a2.52,2.52,0,0,1-.24-1c-.07-.65-.07-1.21-.95-1.12l-.3,0Zm-.34-3.12.51-.05c.46-.05.54-.52.5-.87-.06-.53-.3-.7-.66-.66l-.51.05Z" transform="translate(-267.53 -274.36)"/>
      <path class="cls-2" d="M306.11,328.25l-1.08.41-1.95-5.16,2-.75a1.25,1.25,0,0,1,1.71.89,1.19,1.19,0,0,1-.47,1.63h0a1,1,0,0,1,1.32.66,7.45,7.45,0,0,0,.69,1.47l-1.05.4a2.59,2.59,0,0,1-.5-1c-.23-.61-.37-1.16-1.2-.84l-.27.1Zm-1.1-2.93.47-.18c.43-.16.39-.64.27-1-.19-.49-.47-.6-.81-.47l-.48.19Z" transform="translate(-267.53 -274.36)"/>
      <path class="cls-2" d="M310.47,324l-3.25-2.13,1-.72,2,1.44-.61-2.42,1-.67.79,3.84,1.1,1.57-.95.66Z" transform="translate(-267.53 -274.36)"/>
      <path class="cls-2" d="M316.1,317.86l.61.49-1.16,1.46-.62-.48Z" transform="translate(-267.53 -274.36)"/>
      <path class="cls-2" d="M320.39,315.45l-5.09-2.15,1.12-2.64.78.33-.67,1.58,1.31.55.64-1.51.78.33-.64,1.51,2.22.94Z" transform="translate(-267.53 -274.36)"/>
      <path class="cls-2" d="M322.4,309.35l-.2,1.14-5.44-.94.37-2.1a1.25,1.25,0,0,1,1.64-1c.69.12,1.17.48,1.16,1.24h0a1,1,0,0,1,1.24-.8,7.39,7.39,0,0,0,1.62.15l-.19,1.11a2.47,2.47,0,0,1-1.08-.06c-.64-.11-1.18-.27-1.33.61l-.05.29Zm-3.09-.53.09-.51c.07-.45-.35-.66-.7-.72-.52-.09-.75.1-.82.46l-.08.5Z" transform="translate(-267.53 -274.36)"/>
      <path class="cls-2" d="M322.9,304.29l-5.51.36-.19-3,.84-.06.12,1.85,1.36-.08-.11-1.71.84-.06.12,1.71,1.61-.11-.13-1.91.84-.06Z" transform="translate(-267.53 -274.36)"/>
      <path class="cls-2" d="M322.2,298.62l-5.28,1.59-.87-2.89.81-.24.54,1.78,1.3-.4-.49-1.64.81-.24.49,1.64,1.55-.46-.55-1.84.81-.24Z" transform="translate(-267.53 -274.36)"/>
    </g>
    <g>
      <path class="cls-2" d="M279.24,289.17l.16,2.44,2.38.59-2.27.91.16,2.45-1.57-1.89-2.26.91,1.3-2.06-1.56-1.88,2.36.6Z" transform="translate(-267.53 -274.36)"/>
      <path class="cls-2" d="M286.33,283.37l-.76,2.32,2,1.45h-2.44l-.76,2.33-.76-2.33h-2.43l2-1.43-.75-2.32,2,1.44Z" transform="translate(-267.53 -274.36)"/>
      <path class="cls-2" d="M295.06,280.66l-1.57,1.87,1.29,2.08-2.26-.92-1.58,1.87.18-2.44-2.26-.92,2.36-.59.18-2.43,1.29,2.07Z" transform="translate(-267.53 -274.36)"/>
      <path class="cls-2" d="M304.17,281.41,302,282.56l.42,2.41-1.76-1.7-2.16,1.15,1.08-2.2-1.76-1.69,2.41.33,1.08-2.19.42,2.4Z" transform="translate(-267.53 -274.36)"/>
      <path class="cls-2" d="M312.35,285.53l-2.43.25-.51,2.4-1-2.24-2.44.25,1.83-1.64-1-2.22,2.11,1.22,1.82-1.63-.51,2.38Z" transform="translate(-267.53 -274.36)"/>
    </g>
  </g>
</svg>
