<svg id="Layer_1" data-name="Layer 1" xmlns="http://www.w3.org/2000/svg" viewBox="0 0 60.31 60.31">
  <defs>
    <style>
      .cls-1 {
        fill: #72bf44;
      }

      .cls-2 {
        fill: #808285;
      }
    </style>
  </defs>
  <title>worryfree</title>
  <g>
    <path class="cls-1" d="M297.7,437.25a16.77,16.77,0,1,1,0-33.53,16.55,16.55,0,0,1,10.38,3.6,1.06,1.06,0,0,1,.18,1.49,1.08,1.08,0,0,1-1.5.18,14.46,14.46,0,0,0-9.06-3.15A14.61,14.61,0,1,0,312,417.1a1.05,1.05,0,0,1,.78-1.28,1.07,1.07,0,0,1,1.28.79,16.78,16.78,0,0,1-16.31,20.64Z" transform="translate(-267.54 -390.33)"/>
    <path class="cls-1" d="M297.7,450.64a30.16,30.16,0,1,1,19.93-52.78,1.06,1.06,0,0,1,.1,1.49,1.07,1.07,0,0,1-1.5.1,28,28,0,1,0,5.82,7.14,1.06,1.06,0,0,1,1.84-1.06,30.17,30.17,0,0,1-26.19,45.11Z" transform="translate(-267.54 -390.33)"/>
    <polygon class="cls-1" points="17.96 28 22.42 23.36 30.07 30.91 56.55 6.98 57.46 7.8 30.25 39.93 17.96 28"/>
    <g>
      <path class="cls-2" d="M277.84,416a3.67,3.67,0,0,0,.71,1.24l-.17,1.09-5.68-.88.18-1.23,4.38.68a6.33,6.33,0,0,1-.49-1.06Z" transform="translate(-267.54 -390.33)"/>
      <path class="cls-2" d="M275.56,423.51c-1.8.11-3,.06-3.07-1.49s1.06-1.73,2.87-1.84c2.2-.14,2.95.06,3,1.48S277.76,423.37,275.56,423.51Zm-.15-2.17c-1.73.1-2.1.17-2.08.63s.41.48,2.14.37,2.11-.13,2.08-.63S277.19,421.23,275.41,421.34Z" transform="translate(-267.54 -390.33)"/>
      <path class="cls-2" d="M276.71,428.19c-1.73.49-2.89.7-3.31-.79s.67-1.92,2.41-2.42c2.12-.6,2.89-.56,3.28.81S278.84,427.59,276.71,428.19Zm-.6-2.08c-1.68.47-2,.61-1.9,1.06s.5.38,2.17-.09,2-.58,1.9-1.06S277.82,425.63,276.11,426.11Z" transform="translate(-267.54 -390.33)"/>
      <path class="cls-2" d="M276,433.57l-.33-.51,6.37-1.28.34.51Zm2.21.35c.71-.47,1.41-.7,1.95.14s.06,1.38-.66,1.85-1.38.59-1.89-.19S277.35,434.45,278.17,433.92Zm.35-4.43c.72-.47,1.41-.69,2,.14s.07,1.38-.65,1.85-1.39.59-1.9-.18S277.7,430,278.52,429.49Zm.59,5.71c.24-.16.69-.43.46-.78s-.66-.05-.9.1c-.57.38-.75.54-.55.85S278.54,435.58,279.11,435.2Zm.35-4.43c.25-.15.7-.43.47-.78s-.66-.05-.91.11c-.57.37-.75.54-.55.84S278.89,431.15,279.46,430.77Z" transform="translate(-267.54 -390.33)"/>
      <path class="cls-2" d="M285.27,436.08l1,.57-1.24,3.75h0l2.63-3,1.2.65-1.15,3.8h0l2.47-3.07,1,.55-3.73,4.25-1.12-.62,1.19-3.95h0l-2.78,3.08-1.1-.61Z" transform="translate(-267.54 -390.33)"/>
      <path class="cls-2" d="M292.34,442.34c.22-1.44.44-2.82,2.32-2.52s1.66,1.67,1.44,3.11-.45,2.82-2.33,2.52S292.11,443.77,292.34,442.34Zm2.6.41c.22-1.4.23-2-.41-2.12s-.82.49-1,1.89-.23,2,.41,2.12S294.72,444.15,294.94,442.75Z" transform="translate(-267.54 -390.33)"/>
      <path class="cls-2" d="M299.92,445.57l-1.15.12-.6-5.48,2.12-.23c.79-.09,1.34.36,1.44,1.29a1.19,1.19,0,0,1-.87,1.46h0a1,1,0,0,1,1.11,1,7.57,7.57,0,0,0,.31,1.6l-1.13.12a2.64,2.64,0,0,1-.23-1.05c-.07-.65-.07-1.21-1-1.12l-.29,0Zm-.34-3.12.5-.05c.46,0,.54-.52.5-.87-.05-.53-.3-.7-.66-.66l-.51.06Z" transform="translate(-267.54 -390.33)"/>
      <path class="cls-2" d="M306.13,444.22l-1.08.41-1.95-5.16,2-.75a1.25,1.25,0,0,1,1.72.89,1.19,1.19,0,0,1-.48,1.63h0a1,1,0,0,1,1.31.66,8.06,8.06,0,0,0,.7,1.47l-1.06.4a2.57,2.57,0,0,1-.49-1c-.23-.61-.37-1.15-1.2-.84l-.28.1ZM305,441.29l.48-.18c.43-.16.39-.64.26-1-.18-.5-.46-.6-.8-.47l-.48.18Z" transform="translate(-267.54 -390.33)"/>
      <path class="cls-2" d="M310.48,439.93l-3.25-2.13,1-.72,2,1.44-.61-2.42,1-.67.8,3.84,1.09,1.57-.95.66Z" transform="translate(-267.54 -390.33)"/>
      <path class="cls-2" d="M316.11,433.83l.61.49-1.16,1.47-.61-.49Z" transform="translate(-267.54 -390.33)"/>
      <path class="cls-2" d="M320.41,431.42l-5.09-2.14,1.11-2.65.78.33-.66,1.58,1.3.55.64-1.51.78.33-.63,1.51,2.22.94Z" transform="translate(-267.54 -390.33)"/>
      <path class="cls-2" d="M322.41,425.32l-.2,1.14-5.43-.94.36-2.1a1.25,1.25,0,0,1,1.64-1c.7.12,1.17.48,1.16,1.24h0a1,1,0,0,1,1.24-.8,7.29,7.29,0,0,0,1.62.15l-.2,1.11a2.43,2.43,0,0,1-1.07-.06c-.65-.11-1.19-.27-1.34.61l0,.29Zm-3.09-.53.09-.51c.08-.45-.35-.66-.7-.72-.52-.09-.75.1-.81.46l-.09.5Z" transform="translate(-267.54 -390.33)"/>
      <path class="cls-2" d="M322.91,420.26l-5.5.36-.2-3,.85-.06.12,1.86,1.35-.09-.11-1.71.85-.06.11,1.71,1.61-.11-.13-1.91.85-.05Z" transform="translate(-267.54 -390.33)"/>
      <path class="cls-2" d="M322.22,414.59l-5.29,1.59-.87-2.89.82-.24.53,1.78,1.3-.39-.49-1.64.82-.25.49,1.64,1.54-.46-.55-1.84.81-.24Z" transform="translate(-267.54 -390.33)"/>
    </g>
    <g>
      <path class="cls-2" d="M279.25,405.14l.17,2.44,2.37.59-2.27.91.17,2.45-1.57-1.88-2.27.9,1.3-2.06-1.56-1.88,2.37.6Z" transform="translate(-267.54 -390.33)"/>
      <path class="cls-2" d="M286.34,399.35l-.76,2.32,2,1.44h-2.45l-.76,2.33-.75-2.33h-2.44l2-1.42-.74-2.33,2,1.44Z" transform="translate(-267.54 -390.33)"/>
      <path class="cls-2" d="M295.07,396.64l-1.57,1.86,1.3,2.08-2.27-.92L291,401.53l.18-2.44-2.26-.92,2.37-.59.18-2.43,1.29,2.07Z" transform="translate(-267.54 -390.33)"/>
      <path class="cls-2" d="M304.18,397.38,302,398.53l.43,2.41-1.76-1.7-2.17,1.15,1.08-2.2-1.75-1.69,2.41.33,1.07-2.19.43,2.4Z" transform="translate(-267.54 -390.33)"/>
      <path class="cls-2" d="M312.36,401.5l-2.43.25-.51,2.4-1-2.24-2.44.25,1.83-1.63-1-2.23,2.11,1.22,1.82-1.63-.51,2.39Z" transform="translate(-267.54 -390.33)"/>
    </g>
  </g>
</svg>
