<svg id="Layer_1" data-name="Layer 1" xmlns="http://www.w3.org/2000/svg" viewBox="0 0 193.23 169.65">
  <defs>
    <style>
      .cls-1 {
        fill: #c44427;
      }

      .cls-2 {
        fill: #c24327;
      }
    </style>
  </defs>
  <title>trip-companion-logo</title>
  <g>
    <path class="cls-1" d="M368.32,449.13H227.48l-3.31-42H371.64Zm-137.14-4H364.62l2.69-34H228.5Z" transform="translate(-201.29 -328.73)"/>
    <polygon class="cls-1" points="193.23 90.48 169.59 88.02 169.28 92.01 187 93.85 177.88 111.6 183.65 130.85 153.96 127.76 154.72 120.4 150.7 120.4 149.56 131.32 189.21 135.45 182.18 112 193.23 90.48"/>
    <polygon class="cls-1" points="38.51 120.4 39.28 127.76 9.58 130.85 15.35 111.6 6.23 93.85 23.95 92.01 23.64 88.02 0 90.48 11.05 112 4.03 135.45 43.67 131.32 42.53 120.4 38.51 120.4"/>
    <path class="cls-2" d="M261.88,399.76c-.5.72-1,1.46-1.46,2.22l-15.35-10.57,1,10.14,9.44,5.58h84.81l9.44-5.58,1-10.14-15.57,10.72c-.46-.76-.95-1.5-1.45-2.22l16.68-12.17.64-13-13,.17-12.59,16c-.68-.56-1.39-1.1-2.11-1.62l11.05-14.85-10.17.63-6.81,10.61a43.42,43.42,0,0,0-4.74-2.05l3.46-14.53-6.61-7.76-3.39,20.48c-.85-.17-1.71-.3-2.57-.42l3.09-22.36-8.91-9.48-8.91,9.48,3.09,22.36c-.86.12-1.72.25-2.57.42L286,361.35l-6.61,7.76,3.46,14.53a44,44,0,0,0-4.51,1.93l-6.73-10.49-10.17-.63,10.94,14.71c-.72.52-1.43,1-2.12,1.61l-12.47-15.85-13-.17.65,13Z" transform="translate(-201.29 -328.73)"/>
  </g>
  <polygon class="cls-2" points="149.2 117.26 96.62 149.68 44.03 117.26 149.2 117.26"/>
  <g>
    <path class="cls-2" d="M237.35,421.39h-3v-2.68h8.91v2.68h-3v16h-2.89Z" transform="translate(-201.29 -328.73)"/>
    <path class="cls-2" d="M246.87,429.05v8.36H244v-18.7h4c2.84,0,4.52,1.14,4.52,4.5v.72c0,2.87-1.18,3.6-1.9,3.9,1.09.51,1.71,1.3,1.71,3.84a51.32,51.32,0,0,0,.18,5.74H249.7a40,40,0,0,1-.2-5.56c0-2.28-.29-2.8-2-2.8Zm0-2.38h.66c1.52,0,2.09-.58,2.09-2.61v-.64c0-1.45-.3-2.33-1.94-2.33h-.81Z" transform="translate(-201.29 -328.73)"/>
    <path class="cls-2" d="M257,418.71v18.7h-2.89v-18.7Z" transform="translate(-201.29 -328.73)"/>
    <path class="cls-2" d="M259,418.71h4.16c3,0,4.49,1.47,4.49,4.77v1.1c0,3.09-1.11,5.14-4.65,5.14h-1.11v7.69H259Zm2.89,8.66h.79c1.8,0,2.1-1.05,2.1-2.88v-.92c0-1.36-.24-2.48-1.85-2.48h-1Z" transform="translate(-201.29 -328.73)"/>
    <path class="cls-2" d="M280,431.82v.73c0,2.14-.36,5.14-4.31,5.14-3.47,0-4.2-2.17-4.2-5v-9.43c0-2.89,1.31-4.81,4.25-4.81,3.5,0,4.17,2.33,4.17,4.92v.84H277V423c0-1.24-.29-1.95-1.29-1.95s-1.3.68-1.3,2v9.89c0,1.22.24,2.17,1.33,2.17s1.32-.82,1.32-2.21v-1.05Z" transform="translate(-201.29 -328.73)"/>
    <path class="cls-2" d="M290.14,423.67v8.74c0,3.58-1.52,5.28-4.69,5.28s-4.4-1.74-4.4-5.23v-8.81c0-3.58,1.8-5.22,4.59-5.22S290.14,420.07,290.14,423.67Zm-6.16-.28v9.41c0,1.55.56,2.28,1.6,2.28s1.63-.68,1.63-2.32v-9.39c0-1.49-.46-2.31-1.63-2.31S284,421.81,284,423.39Z" transform="translate(-201.29 -328.73)"/>
    <path class="cls-2" d="M301.25,430.45c0-3.17,0-7.13.1-9.28h0c-.43,3.25-1.47,10.83-2.28,16.24h-2.72c-.6-4.86-1.65-12.84-2.07-16.26h-.06c.06,2.18.14,6.41.14,9.63v6.63h-2.61v-18.7H296c.73,4.75,1.48,10.08,1.73,12.7h0c.3-2.65,1.31-8.22,2.06-12.7H304v18.7h-2.75Z" transform="translate(-201.29 -328.73)"/>
    <path class="cls-2" d="M306,418.71h4.16c3,0,4.49,1.47,4.49,4.77v1.1c0,3.09-1.11,5.14-4.65,5.14h-1.11v7.69H306Zm2.89,8.66h.79c1.8,0,2.1-1.05,2.1-2.88v-.92c0-1.36-.24-2.48-1.85-2.48h-1Z" transform="translate(-201.29 -328.73)"/>
    <path class="cls-2" d="M317.51,432.41l-.66,5h-2.93l3-18.7H321l3.12,18.7h-3l-.74-5Zm2.53-2.65c-.42-3.18-.83-6.2-1.05-8.31h-.1c-.08,1.54-.65,5.55-1,8.31Z" transform="translate(-201.29 -328.73)"/>
    <path class="cls-2" d="M325,437.41v-18.7h3.34c.74,2.64,3,11.87,3.17,12.86h0c-.13-2.3-.14-4.93-.14-8v-4.86H334v18.7h-3.22c-.59-2.23-3.08-12.49-3.26-13.28h0c.13,2.27.12,4.8.12,8.17v5.11Z" transform="translate(-201.29 -328.73)"/>
    <path class="cls-2" d="M338.87,418.71v18.7H336v-18.7Z" transform="translate(-201.29 -328.73)"/>
    <path class="cls-2" d="M349.56,423.67v8.74c0,3.58-1.52,5.28-4.69,5.28s-4.41-1.74-4.41-5.23v-8.81c0-3.58,1.8-5.22,4.59-5.22S349.56,420.07,349.56,423.67Zm-6.16-.28v9.41c0,1.55.56,2.28,1.6,2.28s1.62-.68,1.62-2.32v-9.39c0-1.49-.45-2.31-1.62-2.31S343.4,421.81,343.4,423.39Z" transform="translate(-201.29 -328.73)"/>
    <path class="cls-2" d="M351.13,437.41v-18.7h3.35c.74,2.64,3,11.87,3.17,12.86h0c-.13-2.3-.14-4.93-.14-8v-4.86h2.67v18.7H357c-.59-2.23-3.08-12.49-3.27-13.28h0c.13,2.27.12,4.8.12,8.17v5.11Z" transform="translate(-201.29 -328.73)"/>
  </g>
  <g>
    <path class="cls-2" d="M248.83,469.22l8.61-5.15.91,1.54c-1,1.07-4.64,4.64-5,5h0c1-.69,2.23-1.42,3.64-2.26L259.2,467l.73,1.23-8.6,5.14-.89-1.48c.87-.88,4.9-4.85,5.21-5.15h0c-1,.68-2.17,1.37-3.72,2.3l-2.35,1.41Z" transform="translate(-201.29 -328.73)"/>
    <path class="cls-2" d="M255.5,474.58l-2.34,1.36-1-1.24,8.91-4.87,1.34,1.72L255.56,479l-1-1.28,1.87-2Zm1.95.2c1.21-1.23,2.35-2.39,3.18-3.18l0,0c-.68.47-2.56,1.55-3.85,2.3Z" transform="translate(-201.29 -328.73)"/>
    <path class="cls-2" d="M263,474.41l-1.1-1.18,1.05-1,3.26,3.48-1,1-1.11-1.18-6.26,5.87-1.06-1.13Z" transform="translate(-201.29 -328.73)"/>
    <path class="cls-2" d="M267.58,476.91l-4.95,5.79c-.48.56-.57,1-.11,1.42s.92.17,1.36-.34l4.95-5.8,1.18,1-4.94,5.77c-1,1.2-2.21,1.49-3.48.4s-1.23-2.18-.12-3.48l4.94-5.77Z" transform="translate(-201.29 -328.73)"/>
    <path class="cls-2" d="M268.94,485l-2.49,3.73-1.28-.86,5.57-8.33,1.78,1.19c1.27.85,1.67,1.86.67,3.36l-.21.31c-.86,1.28-1.6,1.26-2,1.17.33.56.38,1.09-.38,2.22a28.26,28.26,0,0,0-1.64,2.61l-1.24-.83a22.08,22.08,0,0,1,1.57-2.53c.68-1,.71-1.34,0-1.84Zm.71-1.06.3.2c.68.45,1.1.37,1.7-.54l.2-.29c.43-.64.56-1.12-.17-1.61l-.37-.24Z" transform="translate(-201.29 -328.73)"/>
    <path class="cls-2" d="M276,489l-1.95-1-1.46,2.8,2.25,1.17-.83,1.17-3.45-1.8,4.64-8.87,3.43,1.79L278,485.5l-2.06-1.08-1.2,2.29,2,1Z" transform="translate(-201.29 -328.73)"/>
    <path class="cls-2" d="M281.81,493.28l-1.1,2.47-1.51-.45,4.43-9.13,2.09.63-1.28,10.07-1.54-.46.39-2.68Zm1.71-1c.28-1.69.53-3.3.75-4.42h-.06c-.28.77-1.18,2.74-1.8,4.1Z" transform="translate(-201.29 -328.73)"/>
    <path class="cls-2" d="M286,497.21l1.72-9.88,1.76.31c.15,1.46.48,6.54.5,7.08h0c.15-1.22.38-2.61.66-4.24l.45-2.56,1.41.24L290.74,498l-1.69-.29c-.11-1.24-.49-6.88-.51-7.32h0c-.13,1.21-.37,2.55-.68,4.32l-.47,2.71Z" transform="translate(-201.29 -328.73)"/>
    <path class="cls-2" d="M293.38,488.26l2.14.1c2.13.1,2.59,1.23,2.5,3.08l-.18,3.84c-.07,1.53-.42,3.2-2.8,3.09l-2.14-.1Zm1.13,8.77.5,0c1,.05,1.2-.6,1.25-1.63l.2-4.17c0-.92-.09-1.52-1.11-1.57l-.49,0Z" transform="translate(-201.29 -328.73)"/>
    <path class="cls-2" d="M305,495.3l.05,2.7-1.55.23.11-10.14,2.16-.33,3.14,9.66-1.6.24-.78-2.59Zm1.14-1.61c-.48-1.65-.94-3.21-1.22-4.31h-.05c.08.83.09,3,.12,4.48Z" transform="translate(-201.29 -328.73)"/>
    <path class="cls-2" d="M307.76,487.42l2.07-.57c2.05-.56,2.83.37,3.32,2.16l1,3.71c.4,1.48.59,3.17-1.71,3.8l-2.06.56Zm3.78,8,.48-.14c1-.26,1-.93.69-1.94l-1.11-4c-.24-.89-.55-1.41-1.53-1.15l-.47.13Z" transform="translate(-201.29 -328.73)"/>
    <path class="cls-2" d="M317.93,494.74l-5.39-8.63,1.55-.62,2,3.57c.67,1.19,1.4,2.42,1.92,3.46l0,0c-.32-1-.65-2.45-1-3.78l-1.08-4,1.53-.62,2.18,9.92Z" transform="translate(-201.29 -328.73)"/>
    <path class="cls-2" d="M323.65,487l-1.94,1,1.48,2.78,2.24-1.19.5,1.35-3.43,1.82-4.71-8.84,3.41-1.82.68,1.26-2.05,1.1,1.21,2.28,1.95-1Z" transform="translate(-201.29 -328.73)"/>
    <path class="cls-2" d="M327.39,490.07l-5.67-8.26,1.47-1c1.13.94,4.91,4.34,5.3,4.71h0c-.76-1-1.56-2.14-2.49-3.5l-1.47-2.14,1.17-.81,5.67,8.26-1.42,1c-.94-.8-5.14-4.58-5.46-4.87h0c.75,1,1.51,2.08,2.53,3.57l1.55,2.25Z" transform="translate(-201.29 -328.73)"/>
    <path class="cls-2" d="M328.12,478.9,326.9,480l-.94-1.09,3.61-3.12.94,1.09-1.22,1.06,5.61,6.49-1.17,1Z" transform="translate(-201.29 -328.73)"/>
    <path class="cls-2" d="M330.8,474.44l5.58,5.19c.54.5,1,.61,1.41.17s.21-.91-.29-1.38l-5.58-5.18L333,472.1l5.56,5.17c1.16,1.07,1.4,2.27.27,3.5s-2.24,1.14-3.49,0l-5.56-5.18Z" transform="translate(-201.29 -328.73)"/>
    <path class="cls-2" d="M338.94,473.4l3.62,2.64-.92,1.25-8.09-5.91,1.26-1.73c.9-1.23,1.93-1.6,3.38-.54l.31.23c1.25.91,1.19,1.65,1.09,2.06.57-.31,1.1-.33,2.2.47a27.11,27.11,0,0,0,2.54,1.74l-.88,1.21a21.63,21.63,0,0,1-2.47-1.68c-1-.72-1.3-.76-1.83,0Zm-1-.76.21-.28c.48-.66.41-1.09-.47-1.73l-.28-.2c-.63-.46-1.1-.61-1.62.1l-.26.35Z" transform="translate(-201.29 -328.73)"/>
    <path class="cls-2" d="M343.21,466.51l-1.1,1.91,2.74,1.57,1.27-2.2,1.13.88L345.31,472l-8.69-5,1.94-3.36,1.24.72-1.16,2,2.24,1.3,1.1-1.91Z" transform="translate(-201.29 -328.73)"/>
  </g>
  <g>
    <polygon class="cls-2" points="96.6 14.21 102.17 17.14 101.11 10.94 105.61 6.55 99.39 5.64 96.6 0 93.82 5.64 87.6 6.55 92.1 10.94 91.04 17.14 96.6 14.21"/>
    <polygon class="cls-2" points="76.6 16.14 81.11 18.51 80.25 13.49 83.9 9.93 78.86 9.2 76.6 4.63 74.35 9.2 69.31 9.93 72.96 13.49 72.09 18.51 76.6 16.14"/>
    <polygon class="cls-2" points="116.6 16.14 112.09 18.51 112.96 13.49 109.31 9.93 114.35 9.2 116.6 4.63 118.86 9.2 123.9 9.93 120.25 13.49 121.11 18.51 116.6 16.14"/>
  </g>
  <g>
    <polygon class="cls-2" points="154.22 78.4 160.24 78.4 166.39 9.68 129.51 9.68 129.51 15.68 159.83 15.68 154.22 78.4"/>
    <polygon class="cls-2" points="39.02 78.4 33.41 15.68 63.72 15.68 63.72 9.68 26.84 9.68 32.99 78.4 39.02 78.4"/>
  </g>
</svg>
