<svg id="Layer_1" data-name="Layer 1" xmlns="http://www.w3.org/2000/svg" viewBox="0 0 193.23 169.65">
  <defs>
    <style>
      .cls-1 {
        fill: #505975;
      }
    </style>
  </defs>
  <title>trip-companion-logo</title>
  <path class="cls-1" d="M242.88,397.19c-.5.72-1,1.46-1.46,2.22l-15.35-10.57,1,10.14,11.22,6.63c-.13.31-.24.63-.36.94h81.66c-.1-.26-.19-.53-.3-.79L330.76,399l1-10.14-15.57,10.72c-.46-.76-.95-1.5-1.45-2.23l16.68-12.16.64-13-13,.17-12.59,16c-.68-.56-1.39-1.1-2.11-1.62l11.05-14.85-10.17.62-6.81,10.62a45.52,45.52,0,0,0-4.74-2.06l3.46-14.53-6.61-7.75-3.39,20.48c-.85-.17-1.71-.3-2.57-.42l3.09-22.36L278.76,347l-8.91,9.48,3.09,22.36c-.86.12-1.72.25-2.57.42L267,358.78l-6.61,7.75,3.46,14.53a46.38,46.38,0,0,0-4.51,1.94l-6.73-10.5-10.17-.62,10.94,14.71c-.72.52-1.43,1.05-2.12,1.61l-12.47-15.85-13-.17.65,13Z" transform="translate(-182.29 -326.16)"/>
  <g>
    <polygon class="cls-1" points="96.6 14.21 102.17 17.14 101.11 10.94 105.61 6.55 99.39 5.64 96.6 0 93.82 5.64 87.6 6.55 92.1 10.94 91.04 17.14 96.6 14.21"/>
    <polygon class="cls-1" points="76.6 16.14 81.11 18.51 80.25 13.49 83.9 9.93 78.86 9.2 76.6 4.63 74.35 9.2 69.31 9.93 72.96 13.49 72.09 18.51 76.6 16.14"/>
    <polygon class="cls-1" points="116.6 16.14 112.09 18.51 112.96 13.49 109.31 9.93 114.35 9.2 116.6 4.63 118.86 9.2 123.9 9.93 120.25 13.49 121.11 18.51 116.6 16.14"/>
  </g>
  <polygon class="cls-1" points="38.51 120.4 39.28 127.76 9.58 130.85 15.35 111.6 6.23 93.85 26.05 91.79 26.05 87.77 0 90.48 11.05 112 4.03 135.45 43.67 131.32 42.53 120.4 38.51 120.4"/>
  <polygon class="cls-1" points="193.23 90.48 167.19 87.77 167.19 91.79 187 93.85 177.88 111.6 183.65 130.85 153.96 127.76 154.72 120.4 150.7 120.4 149.56 131.32 189.21 135.45 182.18 112 193.23 90.48"/>
  <g>
    <polygon class="cls-1" points="39.2 80.4 33.41 15.68 65.72 15.68 60.72 9.68 26.84 9.68 33.17 80.4 39.2 80.4"/>
    <polygon class="cls-1" points="154.04 80.4 160.06 80.4 166.39 9.68 132.51 9.68 127.51 15.68 159.83 15.68 154.04 80.4"/>
  </g>
  <polygon class="cls-1" points="149.2 117.26 96.62 149.68 44.03 117.26 149.2 117.26"/>
  <path class="cls-1" d="M349.32,446.56H208.48l-3.31-42H352.64Zm-137.14-4H345.63l2.68-34H209.5Z" transform="translate(-182.29 -326.16)"/>
  <g>
    <path class="cls-1" d="M218.35,418.81h-3v-2.67h8.91v2.67h-3v16h-2.89Z" transform="translate(-182.29 -326.16)"/>
    <path class="cls-1" d="M227.87,426.48v8.36H225v-18.7h4c2.84,0,4.52,1.14,4.52,4.5v.72c0,2.87-1.18,3.6-1.9,3.9,1.09.51,1.72,1.3,1.72,3.83a51.6,51.6,0,0,0,.17,5.75H230.7a40,40,0,0,1-.2-5.56c0-2.28-.29-2.8-2-2.8Zm0-2.38h.66c1.52,0,2.09-.58,2.09-2.61v-.64c0-1.45-.3-2.33-1.94-2.33h-.81Z" transform="translate(-182.29 -326.16)"/>
    <path class="cls-1" d="M238,416.14v18.7h-2.89v-18.7Z" transform="translate(-182.29 -326.16)"/>
    <path class="cls-1" d="M240,416.14h4.16c3,0,4.49,1.46,4.49,4.77V422c0,3.09-1.11,5.14-4.65,5.14h-1.11v7.69H240Zm2.89,8.65h.79c1.8,0,2.1-1.05,2.1-2.87V421c0-1.36-.24-2.48-1.85-2.48h-1Z" transform="translate(-182.29 -326.16)"/>
    <path class="cls-1" d="M261,429.25V430c0,2.14-.36,5.13-4.31,5.13-3.47,0-4.2-2.16-4.2-5v-9.44c0-2.88,1.31-4.8,4.25-4.8,3.5,0,4.17,2.33,4.17,4.92v.84H258v-1.18c0-1.24-.29-1.95-1.29-1.95s-1.3.68-1.3,2v9.89c0,1.22.24,2.17,1.33,2.17s1.32-.82,1.32-2.21v-1.05Z" transform="translate(-182.29 -326.16)"/>
    <path class="cls-1" d="M271.14,421.1v8.74c0,3.58-1.52,5.27-4.69,5.27s-4.4-1.73-4.4-5.22v-8.81c0-3.58,1.8-5.22,4.59-5.22S271.14,417.5,271.14,421.1Zm-6.16-.28v9.41c0,1.55.56,2.28,1.6,2.28s1.63-.68,1.63-2.32V420.8c0-1.49-.46-2.31-1.63-2.31S265,419.24,265,420.82Z" transform="translate(-182.29 -326.16)"/>
    <path class="cls-1" d="M282.26,427.88c0-3.18,0-7.13.09-9.28h0c-.43,3.25-1.47,10.83-2.28,16.24h-2.72c-.6-4.86-1.65-12.84-2.07-16.26h-.06c.06,2.18.14,6.41.14,9.63v6.63h-2.61v-18.7H277c.73,4.75,1.48,10.08,1.73,12.7h0c.3-2.65,1.31-8.22,2.06-12.7H285v18.7h-2.74Z" transform="translate(-182.29 -326.16)"/>
    <path class="cls-1" d="M287,416.14h4.16c3,0,4.49,1.46,4.49,4.77V422c0,3.09-1.11,5.14-4.65,5.14h-1.11v7.69H287Zm2.89,8.65h.79c1.8,0,2.1-1.05,2.1-2.87V421c0-1.36-.24-2.48-1.85-2.48h-1Z" transform="translate(-182.29 -326.16)"/>
    <path class="cls-1" d="M298.51,429.84l-.66,5h-2.93l3-18.7H302l3.12,18.7h-3l-.74-5Zm2.53-2.65c-.43-3.18-.83-6.2-1.05-8.31h-.1c-.08,1.54-.65,5.55-1,8.31Z" transform="translate(-182.29 -326.16)"/>
    <path class="cls-1" d="M306,434.84v-18.7h3.34c.74,2.64,3,11.87,3.17,12.86h0c-.13-2.3-.14-4.93-.14-8v-4.85H315v18.7h-3.22c-.59-2.23-3.08-12.49-3.26-13.28h0c.13,2.27.12,4.8.12,8.17v5.11Z" transform="translate(-182.29 -326.16)"/>
    <path class="cls-1" d="M319.87,416.14v18.7H317v-18.7Z" transform="translate(-182.29 -326.16)"/>
    <path class="cls-1" d="M330.56,421.1v8.74c0,3.58-1.52,5.27-4.69,5.27s-4.41-1.73-4.41-5.22v-8.81c0-3.58,1.8-5.22,4.59-5.22S330.56,417.5,330.56,421.1Zm-6.16-.28v9.41c0,1.55.56,2.28,1.6,2.28s1.62-.68,1.62-2.32V420.8c0-1.49-.45-2.31-1.62-2.31S324.4,419.24,324.4,420.82Z" transform="translate(-182.29 -326.16)"/>
    <path class="cls-1" d="M332.14,434.84v-18.7h3.34c.74,2.64,3,11.87,3.17,12.86h0c-.13-2.3-.14-4.93-.14-8v-4.85h2.67v18.7H338c-.59-2.23-3.08-12.49-3.26-13.28h0c.13,2.27.12,4.8.12,8.17v5.11Z" transform="translate(-182.29 -326.16)"/>
  </g>
  <g>
    <path class="cls-1" d="M229.83,466.65l8.61-5.15.91,1.54c-1,1.07-4.64,4.63-5,5h0c1-.69,2.23-1.42,3.64-2.26l2.24-1.34.73,1.22-8.6,5.15-.89-1.48c.87-.88,4.9-4.85,5.21-5.15v0c-1,.69-2.17,1.38-3.72,2.31l-2.35,1.41Z" transform="translate(-182.29 -326.16)"/>
    <path class="cls-1" d="M236.5,472l-2.34,1.37-1-1.24,8.91-4.87,1.34,1.72-6.89,7.47-1-1.27,1.87-2Zm1.95.21c1.21-1.23,2.35-2.39,3.18-3.18l0,0c-.68.47-2.56,1.55-3.85,2.3Z" transform="translate(-182.29 -326.16)"/>
    <path class="cls-1" d="M244,471.83l-1.1-1.17,1-1,3.26,3.48-1,1L245.06,473l-6.26,5.87-1.06-1.13Z" transform="translate(-182.29 -326.16)"/>
    <path class="cls-1" d="M248.58,474.34l-5,5.79c-.48.56-.57,1-.11,1.42s.92.17,1.36-.35l5-5.79,1.18,1-4.94,5.77c-1,1.2-2.21,1.49-3.48.4s-1.23-2.18-.12-3.48l4.94-5.77Z" transform="translate(-182.29 -326.16)"/>
    <path class="cls-1" d="M249.94,482.42l-2.49,3.72-1.28-.86,5.57-8.32,1.78,1.19c1.27.85,1.68,1.86.67,3.35l-.21.32c-.86,1.28-1.6,1.25-2,1.17.33.55.38,1.09-.38,2.22a28.26,28.26,0,0,0-1.64,2.61l-1.24-.83a22.08,22.08,0,0,1,1.57-2.53c.68-1,.71-1.34,0-1.84Zm.71-1.06.3.2c.68.45,1.1.36,1.7-.54l.2-.29c.43-.64.56-1.12-.17-1.61l-.36-.24Z" transform="translate(-182.29 -326.16)"/>
    <path class="cls-1" d="M257,486.42l-1.95-1-1.46,2.8,2.25,1.17-.83,1.17-3.44-1.8,4.63-8.88,3.43,1.79-.66,1.28-2.06-1.08-1.2,2.29,2,1Z" transform="translate(-182.29 -326.16)"/>
    <path class="cls-1" d="M262.82,490.71l-1.11,2.47-1.51-.46,4.43-9.12,2.09.63-1.28,10.07-1.54-.47.39-2.67Zm1.71-1c.27-1.69.52-3.3.74-4.42l-.06,0c-.28.78-1.18,2.75-1.8,4.11Z" transform="translate(-182.29 -326.16)"/>
    <path class="cls-1" d="M267,494.64l1.72-9.88,1.76.31c.15,1.46.48,6.54.5,7.08h0c.14-1.22.37-2.61.65-4.24l.45-2.56,1.41.24-1.72,9.88-1.69-.3c-.11-1.23-.49-6.87-.51-7.31h0c-.13,1.21-.37,2.55-.68,4.32l-.47,2.7Z" transform="translate(-182.29 -326.16)"/>
    <path class="cls-1" d="M274.38,485.69l2.14.1c2.13.1,2.59,1.23,2.5,3.08l-.18,3.84c-.07,1.53-.42,3.2-2.8,3.09l-2.14-.11Zm1.13,8.76.5,0c1,0,1.2-.6,1.25-1.63l.2-4.17c0-.92-.09-1.52-1.11-1.57l-.49,0Z" transform="translate(-182.29 -326.16)"/>
    <path class="cls-1" d="M286,492.73l.05,2.7-1.55.23.11-10.15,2.16-.32,3.14,9.66-1.6.24-.78-2.59Zm1.14-1.61c-.48-1.65-.94-3.21-1.22-4.32h-.05c.08.82.09,3,.12,4.48Z" transform="translate(-182.29 -326.16)"/>
    <path class="cls-1" d="M288.76,484.85l2.07-.57c2.05-.56,2.83.37,3.32,2.16l1,3.71c.4,1.47.59,3.17-1.71,3.8l-2.06.56Zm3.78,8,.48-.13c1-.26,1-.94.68-1.94l-1.1-4c-.24-.89-.55-1.42-1.53-1.15l-.47.13Z" transform="translate(-182.29 -326.16)"/>
    <path class="cls-1" d="M298.93,492.17l-5.39-8.63,1.55-.63,2,3.58c.67,1.19,1.4,2.42,1.92,3.45h0c-.32-1-.65-2.45-1-3.78l-1.08-4,1.53-.62,2.18,9.93Z" transform="translate(-182.29 -326.16)"/>
    <path class="cls-1" d="M304.65,484.39l-1.94,1,1.48,2.79,2.24-1.19.5,1.34-3.43,1.83-4.71-8.85,3.41-1.82.68,1.27-2.06,1.09,1.22,2.29,1.95-1Z" transform="translate(-182.29 -326.16)"/>
    <path class="cls-1" d="M308.39,487.5l-5.67-8.26,1.47-1c1.13.94,4.91,4.34,5.3,4.71h0c-.76-1-1.56-2.13-2.49-3.49l-1.47-2.14,1.17-.81,5.67,8.26-1.42,1c-.94-.81-5.14-4.58-5.46-4.87h0c.75,1,1.51,2.08,2.53,3.56l1.55,2.26Z" transform="translate(-182.29 -326.16)"/>
    <path class="cls-1" d="M309.12,476.32l-1.22,1.06-.94-1.09,3.61-3.12.94,1.09-1.22,1.05,5.61,6.5-1.17,1Z" transform="translate(-182.29 -326.16)"/>
    <path class="cls-1" d="M311.8,471.87l5.58,5.19c.54.5,1,.6,1.41.17s.21-.92-.29-1.38l-5.58-5.19,1.05-1.13,5.56,5.17c1.16,1.07,1.4,2.27.27,3.5s-2.24,1.14-3.49,0L310.75,473Z" transform="translate(-182.29 -326.16)"/>
    <path class="cls-1" d="M319.94,470.83l3.62,2.64-.92,1.25-8.09-5.91,1.26-1.73c.9-1.23,1.93-1.6,3.38-.54l.31.23c1.25.91,1.19,1.65,1.09,2.06.56-.31,1.1-.34,2.2.47a29.18,29.18,0,0,0,2.54,1.74l-.88,1.2a21.49,21.49,0,0,1-2.47-1.67c-1-.72-1.3-.76-1.83,0Zm-1-.76.2-.28c.49-.66.42-1.09-.46-1.73l-.28-.2c-.63-.46-1.1-.61-1.62.1l-.26.35Z" transform="translate(-182.29 -326.16)"/>
    <path class="cls-1" d="M324.21,463.94l-1.1,1.9,2.74,1.58,1.27-2.2,1.13.88-1.94,3.37-8.69-5,1.94-3.36,1.24.72-1.16,2,2.24,1.3,1.1-1.91Z" transform="translate(-182.29 -326.16)"/>
  </g>
</svg>
